<svg width="32" height="32" viewBox="0 0 32 32" fill="none" xmlns="http://www.w3.org/2000/svg">
<circle cx="16" cy="16" r="16" fill="white"/>
<path fill-rule="evenodd" clip-rule="evenodd" d="M12.6399 4.17378C11.4525 4.19237 11.446 4.19333 11.2268 4.37202C11.142 4.44119 11.1793 4.57816 11.2875 4.5948L11.6827 4.65561C13.4726 4.93108 14.7879 5.86227 15.315 7.22705C15.5136 7.74146 15.5123 8.85593 15.3124 9.42764C14.9846 10.3649 14.4082 11.167 13.5769 11.8424C13.2759 12.0871 12.8748 12.1703 12.5013 12.0657L12.0694 11.9447C11.4312 11.766 10.9321 11.2678 10.7521 10.6299L10.6463 10.2549C10.5449 9.89526 10.4456 9.56612 10.3686 9.31726C10.2826 9.03947 10.0801 8.98918 9.89592 9.2142C9.70665 9.4453 9.6184 9.74287 9.65108 10.0398L9.73777 10.8273C9.74822 10.9222 9.75875 11.0161 9.76921 11.1077C9.85393 11.8501 10.209 12.5156 10.8869 12.8298L11.5113 13.1192C11.6704 13.193 11.7232 13.3932 11.6212 13.5358C11.4034 13.8402 11.1552 14.3526 11.2062 14.3925C11.2243 14.4066 11.6203 14.3612 12.0862 14.2917C12.5521 14.2221 13.2936 14.1322 13.7339 14.0918L14.5344 14.0183L15.2384 13.9609C16 13.9034 15.9646 13.9034 16 13.9034C16.0354 13.9034 16 13.9034 16.7697 13.961L17.4684 14.0186L18.2675 14.0919C18.707 14.1322 19.4478 14.2221 19.9137 14.2917C20.3797 14.3612 20.7756 14.4066 20.7937 14.3925C20.8447 14.3526 20.5966 13.8402 20.3788 13.5358C20.2767 13.3932 20.3295 13.193 20.4886 13.1192L21.1131 12.8298C21.791 12.5156 22.146 11.8501 22.2307 11.1077C22.2412 11.0161 22.2517 10.9222 22.2622 10.8273L22.3489 10.0398C22.3816 9.74287 22.2933 9.4453 22.104 9.2142C21.9067 8.97317 21.7164 9.01597 21.6266 9.31422C21.5515 9.56345 21.4555 9.8938 21.3536 10.2549L21.2478 10.6299C21.0679 11.2678 20.5688 11.766 19.9306 11.9447L19.4987 12.0657C19.1251 12.1703 18.7241 12.0871 18.423 11.8424C17.5918 11.167 17.0153 10.3649 16.6876 9.42764C16.4876 8.85593 16.4863 7.74146 16.6849 7.22705C17.2124 5.86144 18.5272 4.93114 20.3197 4.65522L20.7113 4.59495C20.8195 4.5783 20.8551 4.44019 20.7684 4.3733C20.5388 4.19595 20.5374 4.19576 19.271 4.18241C18.4581 4.17384 17.6737 4.48195 17.0839 5.04151L17.0333 5.08952C16.4997 5.59574 16.0347 6.00991 16 6.00991C15.9652 6.00991 15.5002 5.59529 14.9666 5.08856C14.9355 5.05901 14.9045 5.02975 14.8736 5.00085C14.2672 4.43401 13.4699 4.16069 12.6399 4.17378Z" fill="#0071BE"/>
<path fill-rule="evenodd" clip-rule="evenodd" d="M11.5674 15.0787C12.1171 15.0052 15.0154 14.9063 16.1038 14.9063C17.4457 14.9062 20.1702 14.9428 20.7924 15.0941L21.379 15.2367L21.3073 19.0474C21.2394 22.6624 21.2076 22.9174 20.6902 24.0142C20.0279 25.4176 18.8179 26.6585 17.4324 27.3545C16.1448 28.0013 15.8021 28.0013 14.5144 27.3545C13.1289 26.6585 11.9189 25.4176 11.2566 24.0142C10.7391 22.917 10.7075 22.6632 10.6393 19.0353L10.5675 15.2126L11.5674 15.0787Z" fill="#0071BE"/>
<path d="M13.7385 16.2373C13.6585 16.2373 13.6182 16.3339 13.6746 16.3907L15.0688 17.7971C15.0914 17.8199 15.1002 17.853 15.0918 17.884L13.9317 22.1747C13.9234 22.2057 13.9321 22.2388 13.9547 22.2615L15.8328 24.1561C15.868 24.1916 15.9254 24.1916 15.9606 24.1561L17.8387 22.2615C17.8613 22.2388 17.8701 22.2057 17.8617 22.1747L16.7016 17.884C16.6933 17.853 16.702 17.8199 16.7246 17.7971L18.1189 16.3907C18.1752 16.3339 18.1344 16.2373 18.0544 16.2373C16.1888 16.2373 15.8355 16.2373 13.7385 16.2373Z" fill="white"/>
</svg>
