<?xml version="1.0" encoding="UTF-8" standalone="no"?>
<svg
   xmlns:dc="http://purl.org/dc/elements/1.1/"
   xmlns:cc="http://creativecommons.org/ns#"
   xmlns:rdf="http://www.w3.org/1999/02/22-rdf-syntax-ns#"
   xmlns:svg="http://www.w3.org/2000/svg"
   xmlns="http://www.w3.org/2000/svg"
   version="1.1"
   id="svg4310"
   viewBox="0 0 259.91264 60.113751"
   height="60.11375"
   width="259.91263">
  <defs
     id="defs4312">
    <clipPath
       clipPathUnits="userSpaceOnUse"
       id="clipPath4981-9">
      <path
         d="m 0,0 595.276,0 0,841.89 L 0,841.89 0,0 Z"
         id="path4983-5" />
    </clipPath>
    <clipPath
       clipPathUnits="userSpaceOnUse"
       id="clipPath4941-8">
      <path
         d="m 0,0 595.276,0 0,841.89 L 0,841.89 0,0 Z"
         id="path4943-6" />
    </clipPath>
    <clipPath
       clipPathUnits="userSpaceOnUse"
       id="clipPath4917-3">
      <path
         d="m 0,0 595.276,0 0,841.89 L 0,841.89 0,0 Z"
         id="path4919-8" />
    </clipPath>
  </defs>
  <metadata
     id="metadata4315">
    <rdf:RDF>
      <cc:Work
         rdf:about="">
        <dc:format>image/svg+xml</dc:format>
        <dc:type
           rdf:resource="http://purl.org/dc/dcmitype/StillImage" />
        <dc:title></dc:title>
      </cc:Work>
    </rdf:RDF>
  </metadata>
  <g
     transform="translate(-262.94993,-114.11818)"
     id="layer1">
    <g
       transform="translate(0.50000159,-0.49999477)"
       id="g5357">
      <g
         id="g4913"
         transform="matrix(1.25,0,0,-1.25,168.52043,1073.5823)">
        <g
           id="g4915"
           clip-path="url(#clipPath4917-3)">
          <g
             id="g4921"
             transform="translate(123.3435,766.5933)">
            <path
               d="m 0,0 c -0.006,0.097 -0.09,0.178 -0.197,0.178 l -5.479,0 -0.132,-0.064 -0.053,-0.129 c 0.125,-2.495 0.111,-4.935 -0.05,-7.28 -1.143,-16.428 -9.462,-28.379 -24.734,-35.518 -3.32,-1.542 -6.991,-2.867 -10.907,-3.929 -0.097,-0.031 -0.157,-0.123 -0.134,-0.232 0.015,-0.082 0.091,-0.139 0.186,-0.139 l 0.017,0 c 0.077,0.007 7.045,0.897 13.541,3.497 7.436,2.969 13.498,7.06 18.013,12.155 5.327,5.987 8.558,13.462 9.606,22.185 C 0.025,-6.33 0.134,-3.214 0,0"
               style="fill:#d7df23;fill-opacity:1;fill-rule:nonzero;stroke:none"
               id="path4923" />
          </g>
          <g
             id="g4925"
             transform="translate(108.4816,760.4996)">
            <path
               d="m 0,0 c -0.053,0.142 -0.142,0.306 -0.398,0.347 -0.807,0.039 -1.597,0.058 -2.354,0.058 -8.064,0 -15.639,-2.035 -21.339,-5.724 -2.772,-1.791 -4.96,-3.894 -6.475,-6.218 -1.572,-2.409 -2.372,-4.977 -2.372,-7.628 0,-3.127 1.105,-6.121 3.285,-8.894 2.091,-2.637 5.125,-4.974 8.801,-6.755 0.024,-0.02 0.091,-0.04 0.181,-0.04 l 0.13,0.02 c 6.394,2.395 11.808,6.18 15.659,10.934 3.958,4.884 6.048,10.563 6.048,16.424 C 1.166,-4.95 0.775,-2.445 0,0"
               style="fill:#39b54a;fill-opacity:1;fill-rule:nonzero;stroke:none"
               id="path4927" />
          </g>
          <g
             id="g4929"
             transform="translate(134.1957,747.8458)">
            <path
               d="m 0,0 c -1.093,2.011 -2.686,3.891 -4.731,5.579 l -0.132,0.053 c -0.09,0 -0.136,-0.089 -0.148,-0.17 l 0,-10e-4 C -6.24,-9.864 -18.573,-22.53 -34.987,-25.364 l -0.149,-0.123 c 0,-0.028 0.013,-0.101 0.146,-0.121 2.128,-0.305 4.329,-0.453 6.524,-0.453 8.05,0 15.622,2.019 21.328,5.704 2.773,1.807 4.948,3.896 6.472,6.229 1.578,2.41 2.381,4.978 2.381,7.617 C 1.715,-4.272 1.137,-2.086 0,0"
               style="fill:#00addc;fill-opacity:1;fill-rule:nonzero;stroke:none"
               id="path4931" />
          </g>
        </g>
      </g>
      <g
         id="g4933"
         transform="matrix(1.25,0,0,-1.25,358.71831,166.53492)">
        <path
           d="m 0,0 -3.583,4.905 -1.33,-1.383 0,-3.525 -2.539,0 0,11.535 2.539,0 0,-5.046 4.683,5.047 3.071,0 L -1.864,6.644 3.054,0 0,0 Z"
           style="fill:#00addc;fill-opacity:1;fill-rule:nonzero;stroke:none"
           id="path4935" />
      </g>
      <g
         id="g4937"
         transform="matrix(1.25,0,0,-1.25,168.52043,1073.5823)">
        <g
           id="g4939"
           clip-path="url(#clipPath4941-8)">
          <g
             id="g4945"
             transform="translate(159.9226,732.6246)">
            <path
               d="m 0,0 c -1.032,0 -1.712,-0.743 -1.906,-1.881 l 3.775,0 C 1.726,-0.755 1.064,0 0,0 m 4.275,-3.439 -6.152,0 c 0.247,-1.147 1.045,-1.741 2.165,-1.741 0.838,0 1.446,0.268 2.14,0.913 L 3.865,-5.54 C 3.039,-6.56 1.85,-7.194 0.246,-7.194 c -2.649,0 -4.615,1.873 -4.615,4.573 l 0,0.033 c 0,2.518 1.799,4.605 4.369,4.605 2.954,0 4.309,-2.301 4.309,-4.807 l 0,-0.028 c 0,-0.252 -0.016,-0.4 -0.034,-0.621"
               style="fill:#00addc;fill-opacity:1;fill-rule:nonzero;stroke:none"
               id="path4947" />
          </g>
          <g
             id="g4949"
             transform="translate(169.0803,725.4888)">
            <path
               d="m 0,0 c -1.536,0 -2.577,0.603 -2.577,2.649 l 0,4.187 -1.059,0 0,2.147 1.059,0 0,2.252 2.506,0 0,-2.252 2.081,0 0,-2.147 -2.081,0 0,-3.772 C -0.071,2.488 0.173,2.2 0.741,2.2 1.2,2.2 1.619,2.328 1.977,2.518 l 0,-2.009 C 1.449,0.196 0.841,0 0,0"
               style="fill:#00addc;fill-opacity:1;fill-rule:nonzero;stroke:none"
               id="path4951" />
          </g>
          <g
             id="g4953"
             transform="translate(176.6277,732.6246)">
            <path
               d="m 0,0 c -1.042,0 -1.715,-0.743 -1.909,-1.881 l 3.774,0 C 1.721,-0.755 1.054,0 0,0 m 4.275,-3.439 -6.147,0 c 0.239,-1.147 1.034,-1.741 2.154,-1.741 0.844,0 1.452,0.268 2.146,0.913 L 3.863,-5.54 C 3.031,-6.56 1.85,-7.194 0.249,-7.194 c -2.653,0 -4.614,1.873 -4.614,4.573 l 0,0.033 c 0,2.518 1.797,4.605 4.365,4.605 2.958,0 4.301,-2.301 4.301,-4.807 l 0,-0.028 c 0,-0.252 -0.014,-0.4 -0.026,-0.621"
               style="fill:#00addc;fill-opacity:1;fill-rule:nonzero;stroke:none"
               id="path4955" />
          </g>
          <g
             id="g4957"
             transform="translate(188.3871,725.6379)">
            <path
               d="m 0,0 0,4.922 c 0,1.186 -0.559,1.8 -1.518,1.8 -0.957,0 -1.567,-0.614 -1.567,-1.8 l 0,-4.922 -2.505,0 0,8.833 2.505,0 0,-1.254 c 0.577,0.742 1.316,1.425 2.594,1.425 1.891,0 2.997,-1.261 2.997,-3.29 L 2.506,0 0,0 Z"
               style="fill:#00addc;fill-opacity:1;fill-rule:nonzero;stroke:none"
               id="path4959" />
          </g>
          <g
             id="g4961"
             transform="translate(198.2948,729.1941)">
            <path
               d="m 0,0 c -0.429,0.203 -0.989,0.331 -1.602,0.331 -1.073,0 -1.727,-0.432 -1.727,-1.221 l 0,-0.032 c 0,-0.674 0.561,-1.068 1.369,-1.068 1.165,0 1.96,0.64 1.96,1.546 L 0,0 Z m -0.049,-3.556 0,0.954 c -0.61,-0.68 -1.459,-1.119 -2.668,-1.119 -1.664,0 -3.037,0.948 -3.037,2.704 l 0,0.027 c 0,1.929 1.465,2.817 3.564,2.817 0.893,0 1.531,-0.149 2.157,-0.354 l 0,0.149 c 0,1.04 -0.644,1.622 -1.895,1.622 -0.954,0 -1.628,-0.191 -2.444,-0.489 l -0.626,1.919 c 0.976,0.424 1.934,0.7 3.427,0.7 2.737,0 3.949,-1.415 3.949,-3.799 l 0,-5.131 -2.427,0 z"
               style="fill:#00addc;fill-opacity:1;fill-rule:nonzero;stroke:none"
               id="path4963" />
          </g>
          <g
             id="g4965"
             transform="translate(209.2379,730.5201)">
            <path
               d="M 0,0 C 0,1.197 -0.93,2.034 -2.15,2.034 -3.369,2.034 -4.296,1.197 -4.296,0 l 0,-0.036 c 0,-1.223 0.927,-2.05 2.146,-2.05 1.22,0 2.15,0.839 2.15,2.05 L 0,0 Z m -2.446,-7.553 c -1.437,0 -2.79,0.328 -3.903,0.919 l 0.852,1.887 c 0.903,-0.514 1.81,-0.814 2.986,-0.814 1.71,0 2.511,0.82 2.511,2.405 l 0,0.431 c -0.734,-0.892 -1.545,-1.436 -2.878,-1.436 -2.062,0 -3.918,1.506 -3.918,4.125 l 0,0.036 c 0,2.633 1.883,4.122 3.918,4.122 1.371,0 2.175,-0.582 2.855,-1.325 l 0,1.154 2.5,0 0,-6.843 c 0,-3.329 -1.639,-4.661 -4.923,-4.661"
               style="fill:#00addc;fill-opacity:1;fill-rule:nonzero;stroke:none"
               id="path4967" />
          </g>
          <g
             id="g4969"
             transform="translate(219.1941,729.1941)">
            <path
               d="m 0,0 c -0.432,0.203 -0.995,0.331 -1.607,0.331 -1.073,0 -1.731,-0.432 -1.731,-1.221 l 0,-0.032 c 0,-0.674 0.564,-1.068 1.369,-1.068 1.17,0 1.969,0.64 1.969,1.546 L 0,0 Z m -0.055,-3.556 0,0.954 c -0.612,-0.68 -1.459,-1.119 -2.676,-1.119 -1.66,0 -3.028,0.948 -3.028,2.704 l 0,0.027 c 0,1.929 1.473,2.817 3.56,2.817 0.89,0 1.532,-0.149 2.159,-0.354 l 0,0.149 c 0,1.04 -0.65,1.622 -1.89,1.622 -0.962,0 -1.633,-0.191 -2.449,-0.489 l -0.62,1.919 c 0.971,0.424 1.929,0.7 3.429,0.7 2.737,0 3.938,-1.415 3.938,-3.799 l 0,-5.131 -2.423,0 z"
               style="fill:#00addc;fill-opacity:1;fill-rule:nonzero;stroke:none"
               id="path4971" />
          </g>
        </g>
      </g>
      <g
         id="g4973"
         transform="matrix(1.25,0,0,-1.25,455.28755,166.53492)">
        <path
           d="m 0,0 -2.316,3.6 -0.872,-0.918 0,-2.682 -2.5,0 0,12.026 2.5,0 0,-6.411 2.942,3.218 2.997,0 L -0.612,5.359 2.864,0 0,0 Z"
           style="fill:#00addc;fill-opacity:1;fill-rule:nonzero;stroke:none"
           id="path4975" />
      </g>
      <g
         id="g4977"
         transform="matrix(1.25,0,0,-1.25,168.52043,1073.5823)">
        <g
           id="g4979"
           clip-path="url(#clipPath4981-9)">
          <g
             id="g4985"
             transform="translate(237.0121,732.6246)">
            <path
               d="m 0,0 c -1.035,0 -1.719,-0.743 -1.913,-1.881 l 3.781,0 C 1.716,-0.755 1.059,0 0,0 m 4.267,-3.439 -6.149,0 c 0.245,-1.147 1.038,-1.741 2.166,-1.741 0.839,0 1.449,0.268 2.146,0.913 L 3.859,-5.54 c -0.82,-1.02 -2.014,-1.654 -3.61,-1.654 -2.656,0 -4.621,1.873 -4.621,4.573 l 0,0.033 c 0,2.518 1.804,4.605 4.372,4.605 2.957,0 4.306,-2.301 4.306,-4.807 l 0,-0.028 c 0,-0.252 -0.013,-0.4 -0.039,-0.621"
               style="fill:#00addc;fill-opacity:1;fill-rule:nonzero;stroke:none"
               id="path4987" />
          </g>
          <g
             id="g4989"
             transform="translate(248.3677,732.0211)">
            <path
               d="m 0,0 c -1.66,0 -2.687,-1.01 -2.687,-3.12 l 0,-3.263 -2.5,0 0,8.833 2.5,0 0,-1.785 c 0.512,1.231 1.343,2.017 2.826,1.956 L 0.139,0 0,0 Z"
               style="fill:#00addc;fill-opacity:1;fill-rule:nonzero;stroke:none"
               id="path4991" />
          </g>
          <path
             d="m 250.117,737.663 2.648,0 0,-2.213 -2.648,0 0,2.213 z m -0.258,-14.715 c -0.464,0 -0.747,0.032 -1.093,0.096 l 0,1.968 c 0.204,-0.037 0.346,-0.053 0.528,-0.053 0.533,0 0.886,0.28 0.886,1.024 l 0,8.488 2.511,0 0,-8.692 c 0,-1.942 -0.987,-2.831 -2.832,-2.831"
             style="fill:#00addc;fill-opacity:1;fill-rule:nonzero;stroke:none"
             id="path4993" />
          <g
             id="g4995"
             transform="translate(260.2776,729.1941)">
            <path
               d="m 0,0 c -0.422,0.203 -0.988,0.331 -1.601,0.331 -1.065,0 -1.726,-0.432 -1.726,-1.221 l 0,-0.032 c 0,-0.674 0.556,-1.068 1.361,-1.068 1.174,0 1.966,0.64 1.966,1.546 L 0,0 Z m -0.051,-3.556 0,0.954 c -0.613,-0.68 -1.452,-1.119 -2.669,-1.119 -1.662,0 -3.033,0.948 -3.033,2.704 l 0,0.027 c 0,1.929 1.471,2.817 3.566,2.817 0.881,0 1.523,-0.149 2.151,-0.354 l 0,0.149 c 0,1.04 -0.638,1.622 -1.895,1.622 -0.963,0 -1.627,-0.191 -2.441,-0.489 l -0.617,1.919 c 0.96,0.424 1.928,0.7 3.428,0.7 2.731,0 3.934,-1.415 3.934,-3.799 l 0,-5.131 -2.424,0 z"
               style="fill:#00addc;fill-opacity:1;fill-rule:nonzero;stroke:none"
               id="path4997" />
          </g>
          <g
             id="g4999"
             transform="translate(270.0415,729.1941)">
            <path
               d="m 0,0 c -0.433,0.203 -0.992,0.331 -1.602,0.331 -1.076,0 -1.734,-0.432 -1.734,-1.221 l 0,-0.032 c 0,-0.674 0.564,-1.068 1.372,-1.068 1.175,0 1.964,0.64 1.964,1.546 L 0,0 Z m -0.051,-3.556 0,0.954 c -0.607,-0.68 -1.455,-1.119 -2.668,-1.119 -1.669,0 -3.035,0.948 -3.035,2.704 l 0,0.027 c 0,1.929 1.463,2.817 3.56,2.817 0.89,0 1.536,-0.149 2.157,-0.354 l 0,0.149 c 0,1.04 -0.641,1.622 -1.899,1.622 -0.953,0 -1.623,-0.191 -2.433,-0.489 l -0.63,1.919 c 0.978,0.424 1.934,0.7 3.436,0.7 2.737,0 3.938,-1.415 3.938,-3.799 l 0,-5.131 -2.426,0 z"
               style="fill:#00addc;fill-opacity:1;fill-rule:nonzero;stroke:none"
               id="path5001" />
          </g>
          <g
             id="g5003"
             transform="translate(280.1667,725.6379)">
            <path
               d="m 0,0 0,4.922 c 0,1.186 -0.56,1.8 -1.518,1.8 -0.958,0 -1.566,-0.614 -1.566,-1.8 l 0,-4.922 -2.51,0 0,8.833 2.51,0 0,-1.254 c 0.574,0.742 1.32,1.425 2.588,1.425 1.898,0 3.003,-1.261 3.003,-3.29 L 2.507,0 0,0 Z"
               style="fill:#00addc;fill-opacity:1;fill-rule:nonzero;stroke:none"
               id="path5005" />
          </g>
          <g
             id="g5007"
             transform="translate(151.3473,744.1703)">
            <path
               d="M 0,0 C 1.297,0 2.117,0.763 2.117,1.835 2.117,2.979 1.229,3.667 0,3.667 l -2.73,0 L -2.73,0 0,0 Z m -0.377,6.653 c 1.044,0 1.815,0.649 1.815,1.539 0,0.879 -0.771,1.523 -1.815,1.523 l -2.353,0 0,-3.062 2.353,0 z m 0.814,6.362 c 2.905,0 4.938,-1.935 4.938,-4.317 0,-1.531 -1.048,-2.833 -2.033,-3.183 l 0,-0.019 C 4.883,5.072 6.208,3.306 6.208,1.652 6.208,-1.07 4.417,-3.284 0.392,-3.284 l -7.033,0 0,16.299 7.078,0 z"
               style="fill:#39b54a;fill-opacity:1;fill-rule:nonzero;stroke:none"
               id="path5009" />
          </g>
          <g
             id="g5011"
             transform="translate(166.4497,749.6666)">
            <path
               d="M 0,0 C 1.507,0 2.414,0.713 2.414,1.93 2.414,3.134 1.507,3.855 0,3.855 l -2.234,0 L -2.234,0 0,0 Z m 0.067,7.514 c 4.01,0 6.432,-2.104 6.432,-5.584 0,-3.496 -2.422,-5.591 -6.432,-5.591 l -2.301,0 0,-5.119 -3.909,0 0,16.298 6.21,-0.004 z"
               style="fill:#39b54a;fill-opacity:1;fill-rule:nonzero;stroke:none"
               id="path5013" />
          </g>
          <g
             id="g5015"
             transform="translate(185.2542,757.1808)">
            <path
               d="m 0,0 0,-9.06 c 0,-4.88 -3.025,-7.559 -7.331,-7.559 -3.114,0 -5.747,1.766 -6.719,4.159 l 3.835,1.027 c 0.557,-0.978 1.558,-1.53 2.884,-1.53 2.145,0 3.418,1.437 3.418,3.765 L -3.913,0 0,0 Z"
               style="fill:#39b54a;fill-opacity:1;fill-rule:nonzero;stroke:none"
               id="path5017" />
          </g>
          <g
             id="g5019"
             transform="translate(197.1512,752.009)">
            <path
               d="m 0,0 c -0.398,1.447 -1.653,2.124 -2.815,2.124 -1.164,0 -1.833,-0.588 -1.833,-1.237 0,-1.07 1.625,-1.465 3.607,-2.193 2.421,-0.876 4.957,-2.253 4.957,-5.048 0,-2.979 -2.564,-5.093 -6.357,-5.093 -3.401,0 -5.821,1.881 -6.893,4.929 l 3.749,1.006 c 0.422,-1.227 1.583,-2.468 3.307,-2.468 1.401,0 2.053,0.656 2.053,1.443 0,1.306 -1.913,1.624 -4.247,2.512 -1.95,0.741 -4.209,1.808 -4.209,4.676 0,2.539 2.562,4.838 6.094,4.838 3.12,0 5.593,-1.904 6.359,-4.46 L 0,0 Z"
               style="fill:#39b54a;fill-opacity:1;fill-rule:nonzero;stroke:none"
               id="path5021" />
          </g>
        </g>
      </g>
    </g>
  </g>
</svg>
