<?xml version="1.0" encoding="UTF-8" standalone="no"?>
<svg
   xmlns:dc="http://purl.org/dc/elements/1.1/"
   xmlns:cc="http://creativecommons.org/ns#"
   xmlns:rdf="http://www.w3.org/1999/02/22-rdf-syntax-ns#"
   xmlns:svg="http://www.w3.org/2000/svg"
   xmlns="http://www.w3.org/2000/svg"
   version="1.1"
   id="svg13858"
   viewBox="0 0 270.40586 43.296376"
   height="43.296375"
   width="270.40585">
  <defs
     id="defs13860">
    <clipPath
       clipPathUnits="userSpaceOnUse"
       id="clipPath13894-1">
      <path
         d="m 0,0 793.701,0 0,1048.819 L 0,1048.819 0,0 Z"
         id="path13896-4" />
    </clipPath>
  </defs>
  <metadata
     id="metadata13863">
    <rdf:RDF>
      <cc:Work
         rdf:about="">
        <dc:format>image/svg+xml</dc:format>
        <dc:type
           rdf:resource="http://purl.org/dc/dcmitype/StillImage" />
        <dc:title></dc:title>
      </cc:Work>
    </rdf:RDF>
  </metadata>
  <g
     transform="translate(-310.71327,-1127.8731)"
     id="layer1">
    <g
       transform="matrix(1.25,0,0,-1.25,278.93786,1199.739)"
       id="g13890">
      <g
         clip-path="url(#clipPath13894-1)"
         id="g13892">
        <g
           transform="translate(135.8119,40.6101)"
           id="g13898">
          <path
             id="path13900"
             style="fill:#009f3c;fill-opacity:1;fill-rule:nonzero;stroke:none"
             d="m 0,0 c -0.876,2.555 -1.753,5.109 -2.629,7.664 l -1.98,-2.467 0,-5.206 c 0,-1.27 -0.712,-2.087 -2.261,-2.079 l -0.928,0 c 0,6.056 0.001,12.112 0.001,18.169 l 0.681,0 c 0.332,0 0.603,0.005 0.926,-0.057 1.084,-0.205 1.588,-0.954 1.588,-2.024 l 0,-0.034 0,-5.631 5.653,6.808 c 0.786,0.948 1.251,0.939 2.544,0.938 l 0.437,0 C 2.54,14.168 1.048,12.256 -0.443,10.343 1.083,6.201 2.609,2.059 4.135,-2.083 l -0.495,0 c -0.733,0 -1.44,-0.028 -2.114,0.279 -0.458,0.21 -0.828,0.529 -1.11,0.934 C 0.224,-0.592 0.106,-0.31 0,0" />
        </g>
        <g
           transform="translate(151.8216,40.8657)"
           id="g13902">
          <path
             id="path13904"
             style="fill:#009f3c;fill-opacity:1;fill-rule:nonzero;stroke:none"
             d="m 0,0 c -0.799,-1.723 -2.694,-2.372 -4.72,-2.372 -3.136,0 -4.845,1.719 -5.614,3.958 -0.536,1.558 -0.706,3.497 -0.42,5.313 0.437,2.776 2.13,5.728 5.634,5.728 5.072,0 5.645,-3.922 5.818,-7.441 l -8.489,0 c -0.094,-2.104 0.337,-5.977 3.508,-5.977 0.84,0 1.476,0.148 1.907,0.442 C -1.613,0.099 -0.984,0.496 0,0 M -2.196,6.488 C -2.255,7.341 -2.35,8.062 -2.481,8.651 -3.232,12.003 -6.717,11.657 -7.525,8.674 -7.685,8.085 -7.778,7.357 -7.804,6.488 l 5.608,0 z" />
        </g>
        <g
           transform="translate(157.105,40.6828)"
           id="g13906">
          <path
             id="path13908"
             style="fill:#009f3c;fill-opacity:1;fill-rule:nonzero;stroke:none"
             d="m 0,0 c 0.566,-0.374 1.243,-0.56 2.032,-0.56 0.823,0 1.437,0.194 1.84,0.584 C 4.275,0.412 4.476,0.91 4.476,1.516 4.476,1.937 4.407,2.29 4.27,2.578 4.133,2.866 3.957,3.111 3.743,3.313 3.529,3.516 3.28,3.683 2.997,3.815 2.714,3.948 2.427,4.068 2.135,4.177 1.484,4.41 0.888,4.663 0.347,4.935 c -0.54,0.272 -1.007,0.58 -1.401,0.922 -0.395,0.342 -0.704,0.735 -0.927,1.179 -0.223,0.442 -0.334,0.96 -0.334,1.551 0,0.7 0.124,1.315 0.373,1.844 0.249,0.528 0.596,0.967 1.041,1.318 0.447,0.35 0.974,0.614 1.583,0.793 0.609,0.179 1.273,0.268 1.994,0.268 0.874,0 1.693,-0.143 2.456,-0.431 C 5.895,12.091 6.457,11.558 6.817,10.78 5.786,10.058 5.111,10.575 4.463,10.815 4.342,10.88 4.217,10.935 4.088,10.982 3.729,11.112 3.334,11.177 2.907,11.177 2.564,11.177 2.233,11.139 1.916,11.061 1.599,10.982 1.32,10.862 1.08,10.699 0.84,10.535 0.652,10.329 0.514,10.08 0.377,9.832 0.309,9.528 0.309,9.17 0.309,8.579 0.489,8.12 0.849,7.793 1.209,7.467 1.66,7.194 2.2,6.977 2.74,6.759 3.323,6.553 3.949,6.359 4.575,6.164 5.158,5.903 5.698,5.577 6.238,5.251 6.688,4.822 7.049,4.293 7.409,3.764 7.589,3.049 7.589,2.147 7.589,1.462 7.456,0.847 7.19,0.303 6.924,-0.241 6.56,-0.7 6.097,-1.074 5.634,-1.446 5.08,-1.734 4.437,-1.937 3.794,-2.139 3.104,-2.24 2.367,-2.24 c -1.235,0 -2.29,0.226 -3.164,0.677 -0.875,0.45 -1.518,1.143 -1.93,2.076 0.339,0.21 0.888,0.528 1.59,0.273 C -0.667,0.616 -0.397,0.262 0,0" />
        </g>
        <g
           transform="translate(188.8409,49.5322)"
           id="g13910">
          <path
             id="path13912"
             style="fill:#009f3c;fill-opacity:1;fill-rule:nonzero;stroke:none"
             d="M 0,0 C 0,0.743 -0.176,1.249 -0.528,1.518 -0.879,1.787 -1.432,1.922 -2.186,1.922 -2.804,1.922 -3.379,1.787 -3.911,1.518 -4.443,1.249 -4.828,0.949 -5.068,0.616 l 0,-9.612 0,-0.031 c 0,-1.017 -0.479,-1.728 -1.508,-1.925 -0.307,-0.057 -0.565,-0.053 -0.881,-0.053 l -0.647,0 0,18.164 0.647,0 c 0.316,0 0.574,0.005 0.881,-0.054 1.029,-0.195 1.508,-0.907 1.508,-1.924 l 0,-0.032 0,-1.312 0,-1.679 c 0.394,0.474 0.977,0.894 1.749,1.258 0.772,0.363 1.672,0.545 2.701,0.545 1.235,0 2.153,-0.304 2.753,-0.914 0.6,-0.608 0.9,-1.553 0.9,-2.833 l 0,-11.219 -0.647,0 c -0.315,0 -0.574,-0.004 -0.88,0.053 C 0.478,-10.755 0,-10.044 0,-9.027 L 0,-8.996 0,0 Z" />
        </g>
        <g
           transform="translate(201.7949,46.8036)"
           id="g13914">
          <path
             id="path13916"
             style="fill:#009f3c;fill-opacity:1;fill-rule:nonzero;stroke:none"
             d="m 0,0 c -0.343,-0.171 -0.746,-0.306 -1.209,-0.407 -0.464,-0.1 -0.909,-0.213 -1.338,-0.336 -0.857,-0.248 -1.475,-0.628 -1.852,-1.138 -0.378,-0.512 -0.566,-1.178 -0.566,-1.999 0,-0.928 0.184,-1.606 0.553,-2.032 0.369,-0.426 0.947,-0.638 1.737,-0.638 0.6,0 1.131,0.139 1.595,0.418 0.463,0.278 0.823,0.666 1.08,1.161 L 0,0 Z m 0.232,-6.249 c -0.344,-0.635 -0.858,-1.134 -1.544,-1.498 -0.686,-0.364 -1.492,-0.546 -2.418,-0.546 -1.407,0 -2.457,0.353 -3.152,1.058 -0.694,0.704 -1.042,1.683 -1.042,2.937 0,1.255 0.275,2.215 0.824,2.881 0.549,0.666 1.398,1.177 2.547,1.533 0.376,0.124 0.776,0.22 1.196,0.29 0.42,0.07 0.832,0.14 1.235,0.21 0.402,0.069 0.789,0.154 1.157,0.255 0.843,0.23 0.925,0.45 0.939,1.046 0.006,0.275 0,0.55 0,0.824 0,0.759 -0.171,1.331 -0.514,1.719 -0.344,0.387 -0.995,0.58 -1.955,0.58 -0.721,0 -1.343,-0.143 -1.865,-0.43 -1.014,-0.554 -1.461,-1.003 -2.766,-0.359 0.497,0.867 1.179,1.49 2.045,1.869 0.866,0.38 1.805,0.569 2.817,0.569 0.72,0 1.402,-0.049 2.045,-0.151 C 0.424,6.438 0.982,6.245 1.453,5.958 1.924,5.672 2.298,5.269 2.572,4.75 2.846,4.231 2.984,3.554 2.984,2.717 l 0,-3.122 0,-5.402 0,-0.019 0,-2.456 C 2.914,-8.283 2.504,-8.285 2.16,-8.285 0.717,-8.286 0.268,-7.517 0.232,-6.249" />
        </g>
        <g
           transform="translate(215.5496,39.4817)"
           id="g13918">
          <path
             id="path13920"
             style="fill:#009f3c;fill-opacity:1;fill-rule:nonzero;stroke:none"
             d="m 0,0 c -0.48,-0.348 -0.973,-0.596 -1.479,-0.747 -0.506,-0.15 -1.171,-0.226 -1.994,-0.226 -1.303,0 -2.323,0.368 -3.061,1.104 C -7.271,0.866 -7.64,1.89 -7.64,3.203 l 0,9.334 -0.495,0 c -0.843,0.025 -1.288,0.157 -1.288,1.471 l 1.776,0 0,3.202 0.647,0 c 0.315,0 0.574,0.004 0.88,-0.054 1.03,-0.196 1.508,-0.907 1.508,-1.924 l 0,-0.032 0,-1.192 1.781,0 c 0.843,-0.026 1.288,-0.157 1.288,-1.471 l -3.087,0 0,-9.334 c 0,-0.807 0.176,-1.436 0.527,-1.886 0.351,-0.451 0.914,-0.676 1.685,-0.676 0.282,0 0.531,0.016 0.746,0.05 C -0.779,0.83 -0.34,0.701 0,0" />
        </g>
        <g
           transform="translate(237.9098,49.5322)"
           id="g13922">
          <path
             id="path13924"
             style="fill:#009f3c;fill-opacity:1;fill-rule:nonzero;stroke:none"
             d="m 0,0 c 0,0.743 -0.176,1.249 -0.527,1.518 -0.352,0.269 -0.906,0.404 -1.66,0.404 -0.617,0 -1.192,-0.135 -1.724,-0.404 C -4.442,1.249 -4.828,0.949 -5.068,0.616 l 0,-9.612 0,-0.031 c 0,-1.017 -0.478,-1.728 -1.509,-1.925 -0.306,-0.057 -0.564,-0.053 -0.88,-0.053 l -0.647,0 0,14.966 0.647,0 c 0.316,0 0.574,0.004 0.88,-0.055 0.971,-0.184 1.451,-0.826 1.504,-1.75 l 0.005,0.002 c 0.395,0.474 0.977,0.894 1.749,1.258 0.772,0.363 1.672,0.545 2.701,0.545 1.235,0 2.153,-0.304 2.753,-0.914 0.6,-0.608 0.9,-1.553 0.9,-2.833 l 0,-11.219 -0.647,0 c -0.316,0 -0.573,-0.004 -0.88,0.053 C 0.478,-10.755 0,-10.044 0,-9.027 L 0,-8.996 0,0 Z" />
        </g>
        <g
           transform="translate(177.5598,40.8657)"
           id="g13926">
          <path
             id="path13928"
             style="fill:#009f3c;fill-opacity:1;fill-rule:nonzero;stroke:none"
             d="m 0,0 c -0.799,-1.723 -2.694,-2.372 -4.719,-2.372 -3.136,0 -4.846,1.719 -5.615,3.958 -0.536,1.558 -0.706,3.497 -0.42,5.313 0.437,2.776 2.131,5.728 5.633,5.728 5.073,0 5.647,-3.922 5.819,-7.441 l -8.49,0 c -0.093,-2.104 0.338,-5.977 3.509,-5.977 0.841,0 1.476,0.148 1.908,0.442 C -1.612,0.099 -0.984,0.496 0,0 M -2.196,6.488 C -2.255,7.341 -2.35,8.062 -2.482,8.651 -3.231,12.003 -6.716,11.657 -7.525,8.674 -7.685,8.085 -7.778,7.357 -7.804,6.488 l 5.608,0 z" />
        </g>
        <g
           transform="translate(224.5699,46.8036)"
           id="g13930">
          <path
             id="path13932"
             style="fill:#009f3c;fill-opacity:1;fill-rule:nonzero;stroke:none"
             d="m 0,0 c -0.343,-0.171 -0.747,-0.306 -1.209,-0.407 -0.463,-0.1 -0.91,-0.213 -1.338,-0.336 -0.858,-0.248 -1.475,-0.628 -1.853,-1.138 -0.377,-0.512 -0.565,-1.178 -0.565,-1.999 0,-0.928 0.184,-1.606 0.553,-2.032 0.369,-0.426 0.947,-0.638 1.736,-0.638 0.601,0 1.132,0.139 1.595,0.418 0.463,0.278 0.823,0.666 1.081,1.161 L 0,0 Z m 0.231,-6.249 c -0.343,-0.635 -0.857,-1.134 -1.543,-1.498 -0.686,-0.364 -1.493,-0.546 -2.419,-0.546 -1.405,0 -2.456,0.353 -3.151,1.058 -0.695,0.704 -1.042,1.683 -1.042,2.937 0,1.255 0.275,2.215 0.823,2.881 0.549,0.666 1.398,1.177 2.548,1.533 0.376,0.124 0.775,0.22 1.196,0.29 0.42,0.07 0.831,0.14 1.234,0.21 0.404,0.069 0.789,0.154 1.158,0.255 0.843,0.23 0.925,0.45 0.939,1.046 0.006,0.275 0,0.55 0,0.824 0,0.759 -0.172,1.331 -0.515,1.719 -0.343,0.387 -0.994,0.58 -1.955,0.58 -0.72,0 -1.342,-0.143 -1.865,-0.43 -1.013,-0.554 -1.46,-1.003 -2.765,-0.359 0.497,0.867 1.179,1.49 2.045,1.869 0.865,0.38 1.805,0.569 2.817,0.569 0.72,0 1.402,-0.049 2.045,-0.151 0.643,-0.1 1.2,-0.293 1.671,-0.58 C 1.925,5.672 2.298,5.269 2.572,4.75 2.846,4.231 2.984,3.554 2.984,2.717 l 0,-3.122 0,-5.402 0,-0.019 0,-2.456 C 2.913,-8.283 2.504,-8.285 2.16,-8.285 0.717,-8.286 0.267,-7.517 0.231,-6.249" />
        </g>
        <g
           transform="translate(81.3068,48.4684)"
           id="g13934">
          <path
             id="path13936"
             style="fill:#2b3078;fill-opacity:1;fill-rule:nonzero;stroke:none"
             d="m 0,0 c 2.007,0.064 2.564,1.813 2.564,3.27 0,1.531 -0.156,3.272 -2.237,3.272 l -2.673,0 L -2.346,0 0,0 Z m -0.033,-8.415 c 0.995,0 1.727,0.277 2.198,0.83 0.472,0.553 0.707,1.446 0.707,2.678 0,1.564 -0.21,3.165 -2.365,3.485 l -2.853,0 0,-6.993 2.313,0 z m -5.501,-1.564 0,2.892 0,15.264 6.243,0 C 4.237,8.177 5.805,5.922 5.491,2.958 5.347,1.594 4.832,0.184 3.459,-0.545 6.82,-1.571 6.827,-6.487 4.839,-8.617 3.991,-9.525 2.633,-9.979 0.764,-9.979 l -6.298,0 z" />
        </g>
        <g
           transform="translate(90.823,56.6454)"
           id="g13938">
          <path
             id="path13940"
             style="fill:#2b3078;fill-opacity:1;fill-rule:nonzero;stroke:none"
             d="m 0,0 0.381,0 2.058,0 3.73,0 c 0.926,0 1.714,-0.094 2.366,-0.285 0.651,-0.189 1.174,-0.473 1.568,-0.853 0.394,-0.379 0.681,-0.857 0.861,-1.433 0.18,-0.577 0.27,-1.253 0.27,-2.027 0,-1.233 -0.094,-2.264 -0.283,-3.093 C 10.763,-8.521 10.446,-9.189 10,-9.695 9.554,-10.2 8.968,-10.563 8.239,-10.784 7.511,-11.006 6.607,-11.116 5.527,-11.116 l -2.339,0 0,-4.961 c 0,-1.269 -0.711,-2.086 -2.259,-2.079 l -0.928,0 C 0.001,-12.104 0,-6.052 0,0 m 5.193,-9.505 c 0.514,0 0.946,0.068 1.298,0.202 0.351,0.135 0.643,0.359 0.874,0.676 0.231,0.315 0.399,0.734 0.502,1.256 0.102,0.521 0.154,1.169 0.154,1.944 0,0.758 -0.044,1.382 -0.129,1.871 -0.086,0.49 -0.219,0.878 -0.398,1.162 -0.18,0.284 -0.416,0.482 -0.707,0.592 -0.292,0.111 -0.652,0.167 -1.08,0.167 l -2.519,0 0,-7.87 2.005,0 z" />
        </g>
        <g
           transform="translate(105.4548,56.6519)"
           id="g13942">
          <path
             id="path13944"
             style="fill:#2b3078;fill-opacity:1;fill-rule:nonzero;stroke:none"
             d="M 0,0 0.674,0 C 1.002,0 1.271,0.004 1.59,-0.057 2.663,-0.261 3.162,-1.002 3.162,-2.06 l 0,-0.034 0,-11.548 c 0,-3.018 -1.783,-4.528 -5.347,-4.528 -0.17,0 -0.335,0.004 -0.495,0.011 -1.166,0.017 -2.192,0.284 -3.078,0.801 -0.917,0.534 -1.589,1.298 -2.018,2.291 0.743,0.301 1.381,0.455 2.06,-0.04 0.276,-0.2 0.505,-0.45 0.794,-0.648 0.319,-0.217 0.681,-0.374 1.086,-0.473 0.863,-0.209 2.087,-0.219 2.919,0.239 C -0.07,-15.524 0,-14.634 0,-13.808 L 0,0 Z" />
        </g>
        <g
           transform="translate(114.1735,40.8889)"
           id="g13946">
          <path
             id="path13948"
             style="fill:#2b3078;fill-opacity:1;fill-rule:nonzero;stroke:none"
             d="m 0,0 c 0.583,-0.398 1.311,-0.596 2.185,-0.596 0.411,0 0.806,0.065 1.183,0.195 0.377,0.13 0.706,0.313 0.989,0.55 C 4.64,0.385 4.863,0.676 5.026,1.019 5.188,1.363 5.27,1.748 5.27,2.177 5.27,2.559 5.21,2.894 5.09,3.184 4.97,3.475 4.807,3.734 4.602,3.963 4.396,4.193 4.151,4.402 3.869,4.594 3.586,4.785 3.282,4.979 2.956,5.178 2.219,5.606 1.538,6.022 0.913,6.426 0.287,6.831 -0.257,7.263 -0.72,7.721 c -0.463,0.458 -0.827,0.965 -1.092,1.523 -0.266,0.558 -0.399,1.219 -0.399,1.983 0,0.656 0.116,1.26 0.347,1.81 0.232,0.549 0.574,1.027 1.028,1.432 0.455,0.404 1.008,0.721 1.658,0.95 0.652,0.229 1.397,0.343 2.237,0.343 1.097,0 2.039,-0.224 2.828,-0.675 0.788,-0.451 1.32,-1.081 1.594,-1.89 C 6.564,12.799 5.9,13.013 5.154,13.575 4.683,13.888 4.122,14.044 3.47,14.044 2.562,14.044 1.855,13.823 1.349,13.38 0.844,12.937 0.591,12.311 0.591,11.501 0.591,10.829 0.784,10.272 1.17,9.829 1.555,9.386 2.035,8.985 2.609,8.626 3.183,8.267 3.809,7.923 4.486,7.595 5.163,7.267 5.788,6.885 6.362,6.449 6.937,6.014 7.416,5.491 7.802,4.88 8.188,4.269 8.38,3.505 8.38,2.589 8.38,1.871 8.243,1.207 7.969,0.595 7.695,-0.016 7.301,-0.542 6.786,-0.985 6.272,-1.428 5.643,-1.776 4.897,-2.028 4.151,-2.28 3.307,-2.407 2.365,-2.407 c -1.217,0 -2.284,0.269 -3.201,0.803 -0.917,0.535 -1.589,1.299 -2.017,2.291 0.742,0.302 1.381,0.455 2.06,-0.039 C -0.518,0.448 -0.289,0.197 0,0" />
        </g>
        <g
           transform="translate(146.647,25.672)"
           id="g13950">
          <path
             id="path13952"
             style="fill:#2b3078;fill-opacity:1;fill-rule:nonzero;stroke:none"
             d="M 0,0 0,3.81 C 0.002,3.983 -0.007,4.154 -0.026,4.32 -0.043,4.486 -0.08,4.646 -0.133,4.799 -0.189,4.951 -0.268,5.097 -0.374,5.232 -0.516,5.429 -0.703,5.573 -0.936,5.666 -1.169,5.758 -1.441,5.804 -1.754,5.802 -1.998,5.799 -2.209,5.765 -2.391,5.697 -2.573,5.63 -2.723,5.547 -2.848,5.448 -2.971,5.351 -3.066,5.254 -3.135,5.159 -3.204,5.064 -3.249,4.988 -3.27,4.931 l 0,0.747 -1.111,0 0,-5.678 1.111,0 0,3.499 c -0.002,0.118 0.007,0.249 0.024,0.388 0.016,0.141 0.052,0.28 0.108,0.416 0.055,0.137 0.139,0.26 0.252,0.368 0.096,0.091 0.204,0.158 0.325,0.206 0.12,0.05 0.263,0.074 0.433,0.074 0.248,-10e-4 0.441,-0.041 0.583,-0.117 0.142,-0.077 0.244,-0.18 0.31,-0.31 0.066,-0.129 0.107,-0.275 0.122,-0.436 0.017,-0.161 0.026,-0.324 0.023,-0.496 L -1.09,0 0,0 Z m -6.587,3.291 -2.398,0 c -0.001,0.01 0,0.057 10e-4,0.141 0.004,0.085 0.014,0.192 0.033,0.322 0.019,0.128 0.054,0.265 0.103,0.407 0.05,0.142 0.12,0.273 0.212,0.398 0.092,0.123 0.212,0.221 0.361,0.293 0.147,0.075 0.33,0.108 0.546,0.099 0.195,-0.005 0.362,-0.048 0.495,-0.125 0.135,-0.08 0.243,-0.182 0.327,-0.305 0.084,-0.124 0.149,-0.254 0.193,-0.391 0.045,-0.139 0.077,-0.271 0.094,-0.395 0.017,-0.124 0.028,-0.227 0.031,-0.307 0.002,-0.082 0.004,-0.129 0.002,-0.137 m 1.101,-0.758 0,0.052 0,0.123 0,0.146 c 10e-4,0.15 -0.006,0.323 -0.023,0.523 -0.016,0.2 -0.049,0.412 -0.097,0.634 -0.05,0.223 -0.125,0.441 -0.223,0.653 -0.099,0.213 -0.23,0.405 -0.396,0.579 C -6.39,5.413 -6.596,5.55 -6.841,5.653 -7.089,5.754 -7.385,5.804 -7.729,5.802 -8.08,5.801 -8.387,5.749 -8.644,5.649 -8.902,5.548 -9.122,5.413 -9.3,5.244 -9.478,5.074 -9.626,4.882 -9.738,4.671 -9.85,4.461 -9.939,4.241 -9.999,4.016 -10.059,3.79 -10.103,3.573 -10.125,3.361 -10.148,3.15 -10.16,2.96 -10.158,2.792 c -0.002,-0.157 0.008,-0.337 0.033,-0.538 0.022,-0.199 0.066,-0.406 0.131,-0.622 0.064,-0.215 0.158,-0.425 0.283,-0.627 0.124,-0.204 0.287,-0.388 0.486,-0.55 0.202,-0.163 0.449,-0.294 0.745,-0.389 0.295,-0.097 0.645,-0.147 1.052,-0.149 0.264,0.002 0.496,0.022 0.697,0.061 0.201,0.037 0.37,0.084 0.507,0.136 0.138,0.052 0.244,0.101 0.32,0.144 0.076,0.045 0.122,0.073 0.137,0.085 l 0.155,0.996 C -5.627,1.327 -5.67,1.294 -5.743,1.241 -5.814,1.189 -5.916,1.131 -6.049,1.069 -6.182,1.006 -6.35,0.955 -6.549,0.913 -6.748,0.87 -6.982,0.853 -7.251,0.862 -7.572,0.869 -7.838,0.915 -8.049,1.001 -8.262,1.087 -8.431,1.194 -8.556,1.325 -8.682,1.456 -8.777,1.592 -8.839,1.733 -8.901,1.875 -8.94,2.005 -8.96,2.125 -8.978,2.244 -8.986,2.336 -8.985,2.398 l 0,0.102 0,0.033 3.499,0 z m -5.924,5.17 -1.08,0 0,-7.703 1.08,0 0,7.703 z m -3.389,-4.412 -2.398,0 c -0.002,0.01 0,0.057 10e-4,0.141 0.004,0.085 0.014,0.192 0.033,0.322 0.019,0.128 0.054,0.265 0.103,0.407 0.049,0.142 0.121,0.273 0.212,0.398 0.092,0.123 0.211,0.221 0.36,0.293 0.147,0.075 0.331,0.108 0.547,0.099 0.195,-0.005 0.361,-0.048 0.495,-0.125 0.134,-0.08 0.244,-0.182 0.326,-0.305 0.085,-0.124 0.149,-0.254 0.195,-0.391 0.045,-0.139 0.076,-0.271 0.093,-0.395 0.017,-0.124 0.027,-0.227 0.031,-0.307 0.002,-0.082 0.003,-0.129 0.002,-0.137 m 1.099,-0.758 0,0.052 0,0.123 0,0.146 c 0.002,0.15 -0.004,0.323 -0.021,0.523 -0.016,0.2 -0.049,0.412 -0.098,0.634 -0.05,0.223 -0.124,0.441 -0.222,0.653 -0.099,0.213 -0.231,0.405 -0.397,0.579 -0.164,0.17 -0.37,0.307 -0.616,0.41 -0.247,0.101 -0.543,0.151 -0.887,0.149 -0.352,-10e-4 -0.658,-0.053 -0.916,-0.153 -0.257,-0.101 -0.477,-0.236 -0.655,-0.405 -0.178,-0.17 -0.325,-0.362 -0.438,-0.573 -0.113,-0.21 -0.2,-0.43 -0.261,-0.655 -0.06,-0.226 -0.104,-0.443 -0.126,-0.655 -0.023,-0.211 -0.035,-0.401 -0.033,-0.569 -0.002,-0.157 0.008,-0.337 0.033,-0.538 0.022,-0.199 0.066,-0.406 0.131,-0.622 0.064,-0.215 0.157,-0.425 0.282,-0.627 0.125,-0.204 0.287,-0.388 0.488,-0.55 0.201,-0.163 0.448,-0.294 0.744,-0.389 0.294,-0.097 0.645,-0.147 1.052,-0.149 0.265,0.002 0.496,0.022 0.697,0.061 0.2,0.037 0.37,0.084 0.507,0.136 0.138,0.052 0.244,0.101 0.32,0.144 0.076,0.045 0.121,0.073 0.136,0.085 l 0.156,0.996 c -0.015,-0.012 -0.058,-0.045 -0.131,-0.098 -0.071,-0.052 -0.173,-0.11 -0.307,-0.172 -0.133,-0.063 -0.3,-0.114 -0.499,-0.156 -0.199,-0.043 -0.433,-0.06 -0.703,-0.051 -0.32,0.007 -0.586,0.053 -0.797,0.139 -0.213,0.086 -0.382,0.193 -0.507,0.324 -0.126,0.131 -0.222,0.267 -0.282,0.408 -0.063,0.142 -0.102,0.272 -0.121,0.392 -0.019,0.119 -0.028,0.211 -0.026,0.273 l 0,0.102 0,0.033 3.497,0 z m -5.008,3.145 -1.08,0 -1.235,-4.401 -1.256,4.401 -1.121,0 1.806,-5.657 -0.083,-0.384 c -0.021,-0.113 -0.055,-0.215 -0.104,-0.307 -0.048,-0.092 -0.113,-0.165 -0.194,-0.221 -0.083,-0.055 -0.183,-0.084 -0.304,-0.085 -0.147,0.001 -0.277,0.02 -0.391,0.05 -0.113,0.033 -0.203,0.065 -0.267,0.096 -0.065,0.033 -0.098,0.05 -0.1,0.051 l 0.114,-0.913 c 0.002,-0.003 0.04,-0.022 0.114,-0.054 0.076,-0.033 0.184,-0.064 0.322,-0.093 0.137,-0.031 0.299,-0.043 0.488,-0.04 0.234,0.001 0.431,0.043 0.59,0.129 0.157,0.082 0.289,0.198 0.395,0.345 0.105,0.149 0.195,0.32 0.269,0.516 0.075,0.195 0.144,0.404 0.21,0.63 l 1.827,5.937 z M -24.122,0 l 0,3.81 c 0.001,0.173 -0.007,0.344 -0.026,0.51 -0.017,0.166 -0.054,0.326 -0.107,0.479 -0.056,0.152 -0.135,0.298 -0.241,0.433 -0.142,0.197 -0.328,0.341 -0.562,0.434 -0.234,0.092 -0.505,0.138 -0.819,0.136 -0.244,-0.003 -0.455,-0.037 -0.636,-0.105 -0.181,-0.067 -0.332,-0.15 -0.457,-0.249 -0.123,-0.097 -0.218,-0.194 -0.287,-0.289 -0.069,-0.095 -0.114,-0.171 -0.135,-0.228 l 0,0.747 -1.111,0 0,-5.678 1.111,0 0,3.499 c -0.002,0.118 0.007,0.249 0.024,0.388 0.016,0.141 0.052,0.28 0.107,0.416 0.056,0.137 0.141,0.26 0.253,0.368 0.097,0.091 0.204,0.158 0.325,0.206 0.12,0.05 0.263,0.074 0.433,0.074 0.247,-10e-4 0.441,-0.041 0.583,-0.117 0.142,-0.077 0.244,-0.18 0.309,-0.31 0.066,-0.129 0.108,-0.275 0.123,-0.436 0.018,-0.161 0.026,-0.324 0.023,-0.496 l 0,-3.592 1.09,0 z m -6.587,3.291 -2.398,0 c -0.002,0.01 0,0.057 0.002,0.141 0.003,0.085 0.013,0.192 0.032,0.322 0.019,0.128 0.054,0.265 0.102,0.407 0.051,0.142 0.122,0.273 0.213,0.398 0.092,0.123 0.211,0.221 0.36,0.293 0.147,0.075 0.331,0.108 0.547,0.099 0.195,-0.005 0.361,-0.048 0.495,-0.125 0.135,-0.08 0.244,-0.182 0.327,-0.305 0.084,-0.124 0.148,-0.254 0.193,-0.391 0.046,-0.139 0.077,-0.271 0.094,-0.395 0.017,-0.124 0.027,-0.227 0.031,-0.307 0.002,-0.082 0.003,-0.129 0.002,-0.137 m 1.1,-0.758 0,0.052 0,0.123 0,0.146 c 0.002,0.15 -0.005,0.323 -0.022,0.523 -0.016,0.2 -0.049,0.412 -0.097,0.634 -0.05,0.223 -0.125,0.441 -0.223,0.653 -0.099,0.213 -0.231,0.405 -0.397,0.579 -0.164,0.17 -0.37,0.307 -0.616,0.41 -0.247,0.101 -0.543,0.151 -0.887,0.149 -0.351,-10e-4 -0.658,-0.053 -0.916,-0.153 -0.257,-0.101 -0.477,-0.236 -0.655,-0.405 -0.178,-0.17 -0.326,-0.362 -0.438,-0.573 -0.113,-0.21 -0.2,-0.43 -0.261,-0.655 C -34.182,3.79 -34.225,3.573 -34.247,3.361 -34.27,3.15 -34.282,2.96 -34.28,2.792 c -0.002,-0.157 0.009,-0.337 0.033,-0.538 0.022,-0.199 0.065,-0.406 0.131,-0.622 0.064,-0.215 0.158,-0.425 0.282,-0.627 0.124,-0.204 0.287,-0.388 0.488,-0.55 0.201,-0.163 0.448,-0.294 0.744,-0.389 0.294,-0.097 0.645,-0.147 1.051,-0.149 0.266,0.002 0.497,0.022 0.698,0.061 0.201,0.037 0.371,0.084 0.507,0.136 0.138,0.052 0.244,0.101 0.32,0.144 0.076,0.045 0.121,0.073 0.137,0.085 l 0.156,0.996 c -0.016,-0.012 -0.059,-0.045 -0.132,-0.098 -0.071,-0.052 -0.173,-0.11 -0.306,-0.172 -0.133,-0.063 -0.301,-0.114 -0.5,-0.156 -0.199,-0.043 -0.432,-0.06 -0.703,-0.051 -0.32,0.007 -0.586,0.053 -0.797,0.139 -0.213,0.086 -0.383,0.193 -0.507,0.324 -0.126,0.131 -0.221,0.267 -0.282,0.408 -0.063,0.142 -0.102,0.272 -0.121,0.392 -0.019,0.119 -0.028,0.211 -0.026,0.273 l 0,0.102 0,0.033 3.498,0 z m -6.722,2.501 c 0,-0.247 -0.025,-0.458 -0.078,-0.633 -0.052,-0.174 -0.13,-0.323 -0.233,-0.446 -0.09,-0.113 -0.187,-0.202 -0.293,-0.267 C -37.039,3.623 -37.14,3.574 -37.241,3.545 -37.34,3.516 -37.428,3.497 -37.503,3.488 -37.577,3.48 -37.629,3.476 -37.66,3.477 l -1.162,0 0,3.157 1.162,0 c 0.082,10e-4 0.179,-0.006 0.289,-0.023 0.113,-0.018 0.231,-0.054 0.35,-0.109 0.119,-0.057 0.232,-0.142 0.335,-0.258 0.106,-0.116 0.191,-0.273 0.255,-0.469 0.065,-0.195 0.099,-0.443 0.1,-0.741 m 1.318,0 c -0.001,0.42 -0.05,0.779 -0.149,1.08 -0.096,0.302 -0.231,0.554 -0.404,0.755 -0.172,0.202 -0.372,0.362 -0.601,0.479 -0.228,0.118 -0.475,0.2 -0.738,0.251 -0.265,0.05 -0.537,0.074 -0.817,0.072 l -2.377,0 0,-7.671 1.277,0 0,2.439 1.142,0 c 0.225,-10e-4 0.451,0.013 0.678,0.044 0.226,0.033 0.45,0.098 0.671,0.197 0.221,0.098 0.436,0.248 0.644,0.445 0.209,0.197 0.373,0.457 0.492,0.776 0.12,0.319 0.181,0.698 0.182,1.133 M 24.132,1.692 C 24.131,1.554 24.098,1.431 24.034,1.325 23.971,1.218 23.885,1.126 23.778,1.049 23.671,0.973 23.549,0.91 23.416,0.862 23.341,0.831 23.265,0.81 23.188,0.796 23.11,0.783 23.044,0.778 22.991,0.778 c -0.186,0 -0.353,0.032 -0.505,0.097 -0.148,0.066 -0.267,0.167 -0.355,0.304 -0.091,0.139 -0.135,0.316 -0.137,0.534 0,0.054 0.003,0.112 0.008,0.174 0.007,0.064 0.018,0.121 0.033,0.168 0.054,0.173 0.147,0.314 0.284,0.423 0.135,0.109 0.303,0.188 0.506,0.239 0.202,0.051 0.43,0.075 0.684,0.075 0.117,0 0.221,-0.004 0.313,-0.016 0.096,-0.009 0.17,-0.02 0.226,-0.03 0.054,-0.009 0.083,-0.014 0.084,-0.016 l 0,-1.038 z M 25.243,0 l 0,3.726 c 0.002,0.248 -0.012,0.461 -0.038,0.639 -0.028,0.179 -0.076,0.338 -0.145,0.478 -0.07,0.142 -0.168,0.278 -0.294,0.41 -0.167,0.173 -0.39,0.311 -0.673,0.413 -0.284,0.102 -0.63,0.156 -1.04,0.158 C 22.809,5.822 22.594,5.802 22.407,5.765 22.222,5.729 22.065,5.684 21.938,5.637 21.814,5.588 21.719,5.545 21.655,5.508 21.591,5.471 21.558,5.451 21.558,5.45 L 21.36,4.453 c 0,0.004 0.032,0.03 0.094,0.078 0.061,0.05 0.152,0.107 0.275,0.175 0.123,0.065 0.273,0.125 0.455,0.176 0.182,0.052 0.392,0.084 0.63,0.09 0.299,-0.001 0.541,-0.034 0.725,-0.1 0.182,-0.063 0.315,-0.152 0.396,-0.263 0.074,-0.095 0.124,-0.192 0.152,-0.291 0.028,-0.1 0.044,-0.195 0.045,-0.287 0.002,-0.092 0.002,-0.172 0,-0.242 l 0,-0.29 c -0.001,0 -0.03,0.005 -0.086,0.013 C 23.988,3.521 23.912,3.528 23.814,3.537 23.715,3.545 23.605,3.55 23.478,3.55 23.262,3.55 23.044,3.537 22.826,3.506 22.607,3.476 22.395,3.426 22.193,3.357 21.989,3.289 21.802,3.195 21.632,3.081 21.461,2.967 21.316,2.825 21.194,2.657 21.099,2.517 21.027,2.381 20.98,2.244 20.931,2.109 20.901,1.986 20.885,1.874 20.868,1.761 20.861,1.669 20.862,1.598 20.861,1.481 20.875,1.349 20.904,1.204 20.931,1.06 20.98,0.913 21.049,0.768 c 0.069,-0.147 0.164,-0.284 0.286,-0.409 0.122,-0.125 0.277,-0.227 0.463,-0.307 0.186,-0.08 0.41,-0.125 0.673,-0.135 0.281,-0.005 0.53,0.026 0.75,0.094 0.219,0.067 0.411,0.162 0.574,0.286 0.163,0.126 0.299,0.272 0.41,0.44 l 0,-0.332 C 24.203,0.351 24.207,0.297 24.215,0.242 24.224,0.185 24.248,0.137 24.288,0.093 24.321,0.059 24.362,0.036 24.413,0.023 24.463,0.011 24.509,0.004 24.554,0.002 24.599,0 24.632,0 24.651,0 l 0.592,0 z M 20.805,4.516 20.649,5.553 C 20.595,5.588 20.549,5.616 20.511,5.637 20.473,5.657 20.437,5.675 20.4,5.689 20.364,5.703 20.322,5.716 20.275,5.73 20.214,5.746 20.161,5.756 20.116,5.763 20.07,5.768 20.019,5.772 19.964,5.772 19.871,5.773 19.78,5.766 19.694,5.756 19.608,5.744 19.523,5.72 19.442,5.683 19.361,5.649 19.282,5.596 19.206,5.522 19.12,5.441 19.049,5.36 18.993,5.278 18.937,5.198 18.893,5.123 18.862,5.057 18.832,4.991 18.812,4.943 18.801,4.91 l 0,0.768 -1.111,0 0,-5.678 1.111,0 0,3.228 c -10e-4,0.099 0.002,0.206 0.007,0.327 0.005,0.12 0.023,0.243 0.048,0.372 0.027,0.128 0.071,0.256 0.132,0.381 0.059,0.102 0.132,0.194 0.219,0.273 0.087,0.081 0.191,0.146 0.309,0.194 0.119,0.047 0.255,0.073 0.407,0.073 0.185,-0.002 0.349,-0.031 0.491,-0.092 0.143,-0.061 0.273,-0.14 0.391,-0.24 M 15.318,1.692 C 15.316,1.554 15.283,1.431 15.219,1.325 15.157,1.218 15.071,1.126 14.963,1.049 14.856,0.973 14.735,0.91 14.602,0.862 14.528,0.831 14.452,0.81 14.374,0.796 14.295,0.783 14.23,0.778 14.176,0.778 c -0.185,0 -0.353,0.032 -0.504,0.097 -0.148,0.066 -0.268,0.167 -0.356,0.304 -0.09,0.139 -0.134,0.316 -0.136,0.534 0,0.054 0.003,0.112 0.008,0.174 0.007,0.064 0.018,0.121 0.033,0.168 0.054,0.173 0.148,0.314 0.284,0.423 0.135,0.109 0.302,0.188 0.505,0.239 0.202,0.051 0.431,0.075 0.685,0.075 0.116,0 0.22,-0.004 0.313,-0.016 0.095,-0.009 0.17,-0.02 0.225,-0.03 0.056,-0.009 0.083,-0.014 0.085,-0.016 l 0,-1.038 z M 16.428,0 l 0,3.726 c 0.003,0.248 -0.011,0.461 -0.037,0.639 -0.028,0.179 -0.077,0.338 -0.146,0.478 -0.069,0.142 -0.167,0.278 -0.294,0.41 -0.166,0.173 -0.389,0.311 -0.673,0.413 -0.283,0.102 -0.63,0.156 -1.04,0.158 C 13.994,5.822 13.78,5.802 13.593,5.765 13.408,5.729 13.25,5.684 13.125,5.637 13,5.588 12.905,5.545 12.84,5.508 12.777,5.471 12.744,5.451 12.744,5.45 L 12.546,4.453 c 0,0.004 0.031,0.03 0.094,0.078 0.06,0.05 0.152,0.107 0.275,0.175 0.123,0.065 0.273,0.125 0.455,0.176 0.182,0.052 0.391,0.084 0.63,0.09 0.299,-0.001 0.541,-0.034 0.725,-0.1 0.181,-0.063 0.315,-0.152 0.395,-0.263 0.075,-0.095 0.125,-0.192 0.153,-0.291 0.028,-0.1 0.043,-0.195 0.045,-0.287 0.002,-0.092 0.002,-0.172 0,-0.242 l 0,-0.29 c -0.002,0 -0.029,0.005 -0.086,0.013 C 15.175,3.521 15.099,3.528 15,3.537 14.901,3.545 14.79,3.55 14.664,3.55 14.448,3.55 14.23,3.537 14.012,3.506 13.792,3.476 13.581,3.426 13.379,3.357 13.174,3.289 12.987,3.195 12.818,3.081 12.647,2.967 12.501,2.825 12.38,2.657 12.285,2.517 12.213,2.381 12.166,2.244 12.118,2.109 12.086,1.986 12.071,1.874 12.053,1.761 12.047,1.669 12.048,1.598 12.047,1.481 12.06,1.349 12.09,1.204 12.118,1.06 12.166,0.913 12.235,0.768 12.304,0.621 12.4,0.484 12.52,0.359 c 0.123,-0.125 0.277,-0.227 0.464,-0.307 0.185,-0.08 0.41,-0.125 0.673,-0.135 0.28,-0.005 0.53,0.026 0.749,0.094 0.22,0.067 0.412,0.162 0.575,0.286 0.162,0.126 0.299,0.272 0.41,0.44 l 0,-0.332 C 15.389,0.351 15.392,0.297 15.401,0.242 15.41,0.185 15.434,0.137 15.474,0.093 15.506,0.059 15.548,0.036 15.598,0.023 15.649,0.011 15.695,0.004 15.74,0.002 15.785,0 15.818,0 15.837,0 l 0.591,0 z M 10.216,-0.477 C 10.219,-0.607 10.184,-0.72 10.113,-0.815 10.042,-0.91 9.948,-0.99 9.826,-1.052 9.707,-1.115 9.573,-1.159 9.43,-1.191 9.287,-1.22 9.142,-1.235 9.001,-1.235 c -0.275,0 -0.513,0.032 -0.711,0.098 -0.201,0.064 -0.355,0.155 -0.464,0.27 -0.107,0.117 -0.163,0.252 -0.164,0.411 0.001,0.109 0.02,0.207 0.059,0.295 C 7.757,-0.073 7.8,0.002 7.848,0.066 7.897,0.128 7.94,0.175 7.977,0.21 8.014,0.242 8.034,0.26 8.036,0.26 l 0.091,0 0.232,0 0.311,0 0.331,0 C 9.243,0.254 9.444,0.23 9.603,0.187 9.76,0.143 9.885,0.088 9.975,0.019 c 0.088,-0.069 0.152,-0.145 0.188,-0.232 0.037,-0.084 0.054,-0.173 0.053,-0.264 M 10.081,3.81 C 10.081,3.555 10.037,3.339 9.953,3.157 9.868,2.978 9.742,2.839 9.572,2.743 9.402,2.646 9.191,2.597 8.938,2.595 8.724,2.597 8.541,2.649 8.389,2.751 8.238,2.853 8.122,2.995 8.043,3.177 7.963,3.359 7.921,3.569 7.921,3.81 7.921,4.061 7.959,4.273 8.034,4.448 8.11,4.623 8.226,4.756 8.383,4.846 8.539,4.936 8.738,4.98 8.98,4.972 9.187,4.966 9.361,4.929 9.503,4.862 9.645,4.794 9.757,4.704 9.842,4.593 9.927,4.483 9.989,4.36 10.025,4.225 10.063,4.09 10.082,3.952 10.081,3.81 m 1.245,-4.235 C 11.335,0.102 11.146,0.494 10.764,0.744 10.382,0.997 9.818,1.122 9.074,1.121 8.989,1.121 8.889,1.118 8.773,1.115 8.657,1.113 8.537,1.114 8.416,1.12 8.292,1.125 8.179,1.137 8.074,1.159 7.966,1.182 7.882,1.216 7.816,1.264 7.75,1.313 7.716,1.378 7.714,1.463 7.716,1.56 7.749,1.635 7.816,1.685 c 0.066,0.051 0.157,0.084 0.273,0.104 0.118,0.018 0.252,0.028 0.405,0.028 0.151,0.001 0.313,0.001 0.486,0 0.473,0.001 0.872,0.083 1.201,0.244 0.329,0.159 0.579,0.388 0.751,0.69 0.171,0.299 0.257,0.66 0.259,1.08 l 0,1.847 -0.561,0 C 10.586,5.681 10.537,5.681 10.487,5.677 10.439,5.675 10.389,5.663 10.338,5.642 10.288,5.619 10.24,5.58 10.195,5.522 10.155,5.464 10.13,5.403 10.122,5.339 10.113,5.277 10.11,5.223 10.112,5.18 l 0,-0.073 c 0,0.002 -0.014,0.024 -0.045,0.069 -0.03,0.046 -0.08,0.1 -0.148,0.165 C 9.85,5.407 9.759,5.472 9.646,5.537 9.532,5.604 9.392,5.659 9.226,5.703 9.06,5.748 8.862,5.77 8.637,5.772 8.492,5.773 8.338,5.756 8.176,5.721 8.013,5.687 7.854,5.626 7.698,5.543 7.541,5.458 7.399,5.343 7.272,5.195 7.145,5.049 7.044,4.862 6.97,4.638 6.897,4.413 6.861,4.145 6.862,3.831 6.864,3.615 6.894,3.424 6.949,3.258 7.004,3.092 7.073,2.949 7.155,2.83 7.236,2.711 7.319,2.614 7.4,2.538 7.482,2.462 7.551,2.405 7.606,2.369 7.662,2.332 7.691,2.315 7.693,2.315 7.689,2.317 7.655,2.312 7.586,2.299 7.516,2.288 7.43,2.263 7.328,2.226 7.226,2.19 7.122,2.137 7.02,2.064 6.918,1.992 6.831,1.894 6.762,1.774 6.693,1.652 6.659,1.5 6.655,1.318 6.648,1.178 6.663,1.06 6.7,0.962 6.736,0.865 6.785,0.783 6.847,0.72 6.909,0.654 6.977,0.604 7.049,0.566 7.122,0.528 7.191,0.498 7.257,0.478 7.255,0.478 7.234,0.466 7.195,0.439 7.155,0.416 7.105,0.375 7.046,0.322 6.985,0.267 6.927,0.198 6.868,0.112 6.807,0.026 6.757,-0.076 6.717,-0.196 c -0.04,-0.12 -0.06,-0.259 -0.062,-0.416 0.002,-0.272 0.092,-0.514 0.272,-0.724 0.18,-0.209 0.445,-0.376 0.792,-0.495 0.35,-0.119 0.777,-0.181 1.282,-0.182 0.312,0 0.604,0.03 0.877,0.091 0.274,0.062 0.517,0.157 0.73,0.285 0.211,0.13 0.381,0.295 0.507,0.495 0.126,0.2 0.196,0.44 0.211,0.717 M 4.667,-0.477 C 4.67,-0.607 4.636,-0.72 4.564,-0.815 4.493,-0.91 4.398,-0.99 4.277,-1.052 4.158,-1.115 4.025,-1.159 3.881,-1.191 3.737,-1.22 3.594,-1.235 3.452,-1.235 c -0.275,0 -0.512,0.032 -0.711,0.098 -0.201,0.064 -0.355,0.155 -0.464,0.27 -0.107,0.117 -0.163,0.252 -0.164,0.411 10e-4,0.109 0.021,0.207 0.059,0.295 0.036,0.088 0.079,0.163 0.127,0.227 0.049,0.062 0.092,0.109 0.129,0.144 0.038,0.032 0.057,0.05 0.059,0.05 l 0.091,0 0.232,0 0.312,0 0.33,0 C 3.694,0.254 3.895,0.23 4.054,0.187 4.211,0.143 4.336,0.088 4.426,0.019 4.514,-0.05 4.578,-0.126 4.615,-0.213 4.651,-0.297 4.668,-0.386 4.667,-0.477 M 4.532,3.81 C 4.532,3.555 4.488,3.339 4.404,3.157 4.319,2.978 4.192,2.839 4.023,2.743 3.853,2.646 3.642,2.597 3.389,2.595 3.175,2.597 2.992,2.649 2.84,2.751 2.689,2.853 2.573,2.995 2.494,3.177 2.414,3.359 2.373,3.569 2.373,3.81 c 0,0.251 0.038,0.463 0.112,0.638 0.076,0.175 0.192,0.308 0.35,0.398 C 2.99,4.936 3.189,4.98 3.431,4.972 3.639,4.966 3.812,4.929 3.954,4.862 4.095,4.794 4.208,4.704 4.293,4.593 4.377,4.483 4.44,4.36 4.476,4.225 4.514,4.09 4.533,3.952 4.532,3.81 M 5.777,-0.425 C 5.786,0.102 5.597,0.494 5.215,0.744 4.833,0.997 4.269,1.122 3.525,1.121 3.44,1.121 3.339,1.118 3.224,1.115 3.107,1.113 2.988,1.114 2.867,1.12 2.744,1.125 2.63,1.137 2.525,1.159 2.417,1.182 2.333,1.216 2.267,1.264 2.201,1.313 2.166,1.378 2.165,1.463 2.166,1.56 2.199,1.635 2.267,1.685 2.333,1.736 2.424,1.769 2.54,1.789 c 0.118,0.018 0.252,0.028 0.405,0.028 0.151,0.001 0.313,0.001 0.486,0 0.472,0.001 0.872,0.083 1.201,0.244 0.328,0.159 0.58,0.388 0.751,0.69 0.172,0.299 0.258,0.66 0.259,1.08 l 0,1.847 -0.56,0 C 5.036,5.681 4.988,5.681 4.938,5.677 4.89,5.675 4.839,5.663 4.789,5.642 4.739,5.619 4.691,5.58 4.646,5.522 4.606,5.464 4.582,5.403 4.573,5.339 4.564,5.277 4.561,5.223 4.562,5.18 l 0,-0.073 c 0,0.002 -0.013,0.024 -0.044,0.069 -0.03,0.046 -0.08,0.1 -0.147,0.165 C 4.301,5.407 4.21,5.472 4.098,5.537 3.983,5.604 3.843,5.659 3.677,5.703 3.511,5.748 3.313,5.77 3.088,5.772 2.943,5.773 2.79,5.756 2.627,5.721 2.464,5.687 2.305,5.626 2.149,5.543 1.992,5.458 1.85,5.343 1.724,5.195 1.595,5.049 1.495,4.862 1.421,4.638 1.348,4.413 1.312,4.145 1.314,3.831 1.315,3.615 1.345,3.424 1.4,3.258 1.455,3.092 1.525,2.949 1.606,2.83 1.687,2.711 1.771,2.614 1.852,2.538 1.933,2.462 2.002,2.405 2.058,2.369 2.113,2.332 2.142,2.315 2.143,2.315 2.14,2.317 2.106,2.312 2.037,2.299 1.967,2.288 1.881,2.263 1.779,2.226 1.677,2.19 1.573,2.137 1.471,2.064 1.369,1.992 1.283,1.894 1.213,1.774 1.144,1.652 1.11,1.5 1.106,1.318 1.099,1.178 1.115,1.06 1.151,0.962 1.187,0.865 1.235,0.783 1.298,0.72 1.36,0.654 1.428,0.604 1.5,0.566 1.573,0.528 1.642,0.498 1.708,0.478 1.706,0.478 1.686,0.466 1.646,0.439 1.606,0.416 1.556,0.375 1.497,0.322 1.436,0.267 1.377,0.198 1.318,0.112 1.258,0.026 1.208,-0.076 1.168,-0.196 1.128,-0.316 1.108,-0.455 1.106,-0.612 1.108,-0.884 1.198,-1.126 1.377,-1.336 1.557,-1.545 1.822,-1.712 2.17,-1.831 2.519,-1.95 2.947,-2.012 3.452,-2.013 c 0.312,0 0.604,0.03 0.877,0.091 0.274,0.062 0.517,0.157 0.73,0.285 0.211,0.13 0.381,0.295 0.507,0.495 0.127,0.2 0.195,0.44 0.211,0.717 M -43.404,0 l 0,3.81 c 0.001,0.173 -0.008,0.344 -0.027,0.51 -0.017,0.166 -0.053,0.326 -0.107,0.479 -0.055,0.152 -0.135,0.298 -0.24,0.433 -0.142,0.197 -0.329,0.341 -0.563,0.434 -0.233,0.092 -0.505,0.138 -0.818,0.136 -0.244,-0.003 -0.455,-0.037 -0.636,-0.105 -0.182,-0.067 -0.333,-0.15 -0.457,-0.249 -0.123,-0.097 -0.218,-0.194 -0.287,-0.289 -0.07,-0.095 -0.115,-0.171 -0.136,-0.228 l 0,0.747 -1.11,0 0,-5.678 1.11,0 0,3.499 c -0.001,0.118 0.008,0.249 0.025,0.388 0.015,0.141 0.052,0.28 0.107,0.416 0.055,0.137 0.14,0.26 0.253,0.368 0.097,0.091 0.204,0.158 0.325,0.206 0.119,0.05 0.263,0.074 0.432,0.074 0.248,-10e-4 0.442,-0.041 0.584,-0.117 0.141,-0.077 0.244,-0.18 0.309,-0.31 0.066,-0.129 0.107,-0.275 0.123,-0.436 0.017,-0.161 0.026,-0.324 0.023,-0.496 l 0,-3.592 1.09,0 z m -6.764,1.692 C -50.17,1.554 -50.203,1.431 -50.267,1.325 -50.329,1.218 -50.416,1.126 -50.523,1.049 -50.63,0.973 -50.751,0.91 -50.884,0.862 -50.959,0.831 -51.035,0.81 -51.113,0.796 -51.19,0.783 -51.256,0.778 -51.31,0.778 c -0.185,0 -0.353,0.032 -0.503,0.097 -0.149,0.066 -0.269,0.167 -0.357,0.304 -0.089,0.139 -0.135,0.316 -0.136,0.534 0,0.054 0.003,0.112 0.008,0.174 0.007,0.064 0.017,0.121 0.033,0.168 0.054,0.173 0.147,0.314 0.284,0.423 0.135,0.109 0.303,0.188 0.505,0.239 0.203,0.051 0.431,0.075 0.685,0.075 0.116,0 0.22,-0.004 0.313,-0.016 0.096,-0.009 0.17,-0.02 0.225,-0.03 0.056,-0.009 0.083,-0.014 0.085,-0.016 l 0,-1.038 z M -49.057,0 l 0,3.726 c 0.001,0.248 -0.013,0.461 -0.038,0.639 -0.028,0.179 -0.076,0.338 -0.146,0.478 -0.069,0.142 -0.168,0.278 -0.294,0.41 -0.166,0.173 -0.389,0.311 -0.673,0.413 -0.284,0.102 -0.63,0.156 -1.04,0.158 -0.244,-0.002 -0.458,-0.022 -0.645,-0.059 -0.185,-0.036 -0.343,-0.081 -0.469,-0.128 -0.124,-0.049 -0.22,-0.092 -0.284,-0.129 C -52.71,5.471 -52.742,5.451 -52.742,5.45 L -52.94,4.453 c 0,0.004 0.032,0.03 0.094,0.078 0.06,0.05 0.152,0.107 0.275,0.175 0.123,0.065 0.273,0.125 0.455,0.176 0.181,0.052 0.391,0.084 0.629,0.09 0.3,-0.001 0.542,-0.034 0.726,-0.1 0.181,-0.063 0.315,-0.152 0.396,-0.263 0.074,-0.095 0.124,-0.192 0.152,-0.291 0.028,-0.1 0.043,-0.195 0.045,-0.287 0.002,-0.092 0.002,-0.172 0,-0.242 l 0,-0.29 c -0.002,0 -0.029,0.005 -0.087,0.013 -0.057,0.009 -0.133,0.016 -0.231,0.025 -0.099,0.008 -0.21,0.013 -0.336,0.013 -0.216,0 -0.434,-0.013 -0.652,-0.044 -0.22,-0.03 -0.431,-0.08 -0.633,-0.149 -0.205,-0.068 -0.392,-0.162 -0.561,-0.276 -0.171,-0.114 -0.316,-0.256 -0.438,-0.424 -0.095,-0.14 -0.168,-0.276 -0.215,-0.413 -0.048,-0.135 -0.079,-0.258 -0.094,-0.37 -0.018,-0.113 -0.025,-0.205 -0.023,-0.276 -0.002,-0.117 0.012,-0.249 0.041,-0.394 0.028,-0.144 0.076,-0.291 0.146,-0.436 0.069,-0.147 0.164,-0.284 0.285,-0.409 0.123,-0.125 0.277,-0.227 0.464,-0.307 0.185,-0.08 0.41,-0.125 0.673,-0.135 0.28,-0.005 0.529,0.026 0.749,0.094 0.22,0.067 0.412,0.162 0.574,0.286 0.163,0.126 0.3,0.272 0.411,0.44 l 0,-0.332 c -0.002,-0.054 10e-4,-0.108 0.01,-0.163 0.009,-0.057 0.033,-0.105 0.073,-0.149 0.032,-0.034 0.074,-0.057 0.124,-0.07 0.05,-0.012 0.097,-0.019 0.142,-0.021 C -49.701,0 -49.668,0 -49.649,0 l 0.592,0 z m -6.65,1.339 c -0.052,-0.069 -0.114,-0.135 -0.188,-0.197 -0.073,-0.064 -0.16,-0.12 -0.258,-0.167 -0.118,-0.056 -0.23,-0.096 -0.337,-0.12 -0.108,-0.024 -0.22,-0.035 -0.338,-0.035 -0.225,0.002 -0.415,0.053 -0.57,0.154 -0.155,0.1 -0.28,0.242 -0.373,0.422 -0.095,0.18 -0.164,0.391 -0.209,0.633 -0.043,0.241 -0.069,0.502 -0.072,0.784 -0.003,0.16 0.004,0.333 0.017,0.522 0.013,0.189 0.041,0.378 0.082,0.568 0.044,0.189 0.11,0.362 0.196,0.521 0.088,0.157 0.206,0.284 0.353,0.38 0.147,0.096 0.332,0.146 0.555,0.147 0.198,0 0.367,-0.029 0.507,-0.086 0.142,-0.056 0.257,-0.135 0.345,-0.235 0.083,-0.089 0.143,-0.187 0.187,-0.296 0.041,-0.111 0.069,-0.225 0.084,-0.341 0.014,-0.118 0.021,-0.229 0.019,-0.339 l 0,-2.315 z M -54.596,0 l 0,7.703 -1.111,0 0,-2.555 c 0,0.003 -0.012,0.026 -0.038,0.068 -0.028,0.046 -0.07,0.099 -0.131,0.163 -0.062,0.064 -0.144,0.129 -0.248,0.194 -0.103,0.064 -0.231,0.119 -0.386,0.163 -0.154,0.042 -0.335,0.065 -0.546,0.066 C -57.35,5.801 -57.608,5.754 -57.831,5.661 -58.055,5.567 -58.247,5.441 -58.409,5.282 -58.57,5.121 -58.705,4.94 -58.812,4.737 -58.921,4.533 -59.008,4.32 -59.07,4.095 -59.134,3.872 -59.179,3.65 -59.207,3.431 c -0.027,-0.219 -0.039,-0.426 -0.039,-0.618 0,-0.309 0.022,-0.607 0.07,-0.895 0.049,-0.286 0.125,-0.553 0.229,-0.797 0.106,-0.246 0.24,-0.458 0.41,-0.64 0.167,-0.184 0.372,-0.323 0.611,-0.422 0.24,-0.099 0.52,-0.147 0.838,-0.142 0.203,0.002 0.388,0.028 0.553,0.081 0.164,0.054 0.318,0.128 0.46,0.225 0.144,0.095 0.283,0.21 0.42,0.337 l 0,-0.56 1.059,0 z m -6.878,1.692 C -61.476,1.554 -61.508,1.431 -61.572,1.325 -61.634,1.218 -61.721,1.126 -61.828,1.049 -61.935,0.973 -62.056,0.91 -62.19,0.862 -62.264,0.831 -62.341,0.81 -62.418,0.796 c -0.078,-0.013 -0.144,-0.018 -0.198,-0.018 -0.185,0 -0.353,0.032 -0.503,0.097 -0.149,0.066 -0.268,0.167 -0.356,0.304 -0.091,0.139 -0.135,0.316 -0.137,0.534 0,0.054 0.003,0.112 0.008,0.174 0.007,0.064 0.018,0.121 0.033,0.168 0.054,0.173 0.147,0.314 0.284,0.423 0.135,0.109 0.303,0.188 0.505,0.239 0.203,0.051 0.431,0.075 0.685,0.075 0.116,0 0.22,-0.004 0.314,-0.016 0.095,-0.009 0.169,-0.02 0.224,-0.03 0.056,-0.009 0.083,-0.014 0.085,-0.016 l 0,-1.038 z M -60.363,0 l 0,3.726 c 0.002,0.248 -0.012,0.461 -0.038,0.639 -0.028,0.179 -0.076,0.338 -0.145,0.478 -0.07,0.142 -0.168,0.278 -0.295,0.41 -0.165,0.173 -0.389,0.311 -0.672,0.413 -0.284,0.102 -0.63,0.156 -1.04,0.158 -0.244,-0.002 -0.459,-0.022 -0.646,-0.059 -0.185,-0.036 -0.342,-0.081 -0.469,-0.128 -0.124,-0.049 -0.219,-0.092 -0.283,-0.129 -0.064,-0.037 -0.097,-0.057 -0.097,-0.058 l -0.197,-0.997 c 0,0.004 0.031,0.03 0.093,0.078 0.061,0.05 0.152,0.107 0.275,0.175 0.123,0.065 0.273,0.125 0.455,0.176 0.182,0.052 0.391,0.084 0.63,0.09 0.3,-0.001 0.541,-0.034 0.725,-0.1 0.182,-0.063 0.315,-0.152 0.396,-0.263 0.075,-0.095 0.124,-0.192 0.152,-0.291 0.028,-0.1 0.043,-0.195 0.045,-0.287 0.002,-0.092 0.002,-0.172 0,-0.242 l 0,-0.29 c -0.002,0 -0.029,0.005 -0.086,0.013 -0.057,0.009 -0.134,0.016 -0.232,0.025 -0.099,0.008 -0.209,0.013 -0.336,0.013 -0.216,0 -0.434,-0.013 -0.652,-0.044 -0.22,-0.03 -0.43,-0.08 -0.633,-0.149 -0.204,-0.068 -0.391,-0.162 -0.561,-0.276 -0.171,-0.114 -0.316,-0.256 -0.438,-0.424 -0.095,-0.14 -0.167,-0.276 -0.214,-0.413 -0.048,-0.135 -0.079,-0.258 -0.095,-0.37 -0.018,-0.113 -0.024,-0.205 -0.023,-0.276 -0.001,-0.117 0.012,-0.249 0.042,-0.394 0.028,-0.144 0.076,-0.291 0.145,-0.436 0.069,-0.147 0.165,-0.284 0.286,-0.409 0.123,-0.125 0.276,-0.227 0.463,-0.307 0.186,-0.08 0.41,-0.125 0.673,-0.135 0.281,-0.005 0.529,0.026 0.75,0.094 0.219,0.067 0.411,0.162 0.574,0.286 0.163,0.126 0.299,0.272 0.41,0.44 l 0,-0.332 c -0.002,-0.054 0.002,-0.108 0.01,-0.163 0.009,-0.057 0.033,-0.105 0.073,-0.149 0.033,-0.034 0.074,-0.057 0.124,-0.07 0.051,-0.012 0.098,-0.019 0.142,-0.021 C -61.006,0 -60.974,0 -60.955,0 l 0.592,0 z m -6.535,2.294 c 0,-0.207 -0.026,-0.382 -0.076,-0.526 C -67.025,1.625 -67.1,1.511 -67.199,1.422 -67.315,1.31 -67.45,1.232 -67.602,1.187 -67.756,1.142 -67.912,1.114 -68.071,1.107 -68.232,1.1 -68.381,1.099 -68.518,1.1 l -1.1,0 0,2.357 1.1,0 c 0.175,0.002 0.345,-0.004 0.511,-0.017 0.168,-0.014 0.322,-0.046 0.464,-0.094 0.141,-0.049 0.263,-0.127 0.365,-0.232 0.09,-0.097 0.157,-0.213 0.205,-0.347 0.051,-0.134 0.075,-0.291 0.075,-0.473 m -0.28,3.259 C -67.18,5.339 -67.216,5.162 -67.287,5.025 -67.358,4.886 -67.45,4.779 -67.561,4.701 -67.672,4.621 -67.786,4.566 -67.907,4.53 -68.028,4.495 -68.139,4.472 -68.241,4.464 -68.343,4.455 -68.423,4.452 -68.476,4.453 l -1.142,0 0,2.181 1.142,0 c 0.045,10e-4 0.107,0 0.183,-0.004 0.078,-0.002 0.161,-0.011 0.251,-0.024 0.088,-0.013 0.177,-0.035 0.262,-0.064 0.084,-0.03 0.157,-0.073 0.217,-0.126 0.131,-0.096 0.227,-0.213 0.29,-0.35 0.063,-0.135 0.095,-0.306 0.095,-0.513 m 1.598,-3.238 c 0,0.147 -0.014,0.292 -0.047,0.437 -0.03,0.146 -0.082,0.286 -0.155,0.42 -0.073,0.134 -0.172,0.257 -0.296,0.368 -0.152,0.138 -0.32,0.24 -0.502,0.309 -0.183,0.07 -0.368,0.118 -0.557,0.148 0.127,0.041 0.249,0.093 0.37,0.155 0.123,0.063 0.236,0.134 0.34,0.215 0.103,0.081 0.192,0.172 0.266,0.273 0.09,0.144 0.163,0.31 0.216,0.498 0.055,0.189 0.083,0.407 0.085,0.654 -0.002,0.281 -0.047,0.528 -0.137,0.741 -0.088,0.213 -0.209,0.393 -0.36,0.54 -0.15,0.147 -0.321,0.259 -0.51,0.339 -0.237,0.105 -0.484,0.177 -0.744,0.211 -0.258,0.035 -0.54,0.053 -0.844,0.048 l -2.419,0 0,-7.671 2.398,0 c 0.185,-0.002 0.379,0.004 0.581,0.015 0.203,0.013 0.405,0.037 0.606,0.077 0.202,0.04 0.396,0.102 0.581,0.185 0.185,0.081 0.353,0.193 0.506,0.335 0.164,0.165 0.292,0.341 0.382,0.53 0.092,0.189 0.153,0.383 0.19,0.581 0.034,0.199 0.052,0.396 0.05,0.592 M 54.215,0 l 0,3.81 C 54.216,3.983 54.207,4.154 54.188,4.32 54.171,4.486 54.134,4.646 54.081,4.799 54.026,4.951 53.946,5.097 53.841,5.232 53.699,5.429 53.512,5.573 53.278,5.666 53.045,5.758 52.773,5.804 52.46,5.802 52.216,5.799 52.005,5.765 51.823,5.697 51.642,5.63 51.491,5.547 51.367,5.448 51.244,5.351 51.148,5.254 51.079,5.159 51.01,5.064 50.965,4.988 50.944,4.931 l 0,0.747 -1.11,0 0,-5.678 1.11,0 0,3.499 c -0.002,0.118 0.008,0.249 0.024,0.388 0.016,0.141 0.052,0.28 0.107,0.416 0.056,0.137 0.141,0.26 0.253,0.368 0.097,0.091 0.205,0.158 0.325,0.206 0.121,0.05 0.264,0.074 0.434,0.074 0.247,-10e-4 0.44,-0.041 0.583,-0.117 0.141,-0.077 0.243,-0.18 0.309,-0.31 0.066,-0.129 0.107,-0.275 0.123,-0.436 0.017,-0.161 0.026,-0.324 0.022,-0.496 l 0,-3.592 1.091,0 z m -5.716,5.678 -1.1,0 0,-5.678 1.1,0 0,5.678 z m 0.094,1.454 C 48.591,7.242 48.563,7.34 48.506,7.422 48.449,7.504 48.373,7.568 48.274,7.613 48.176,7.658 48.065,7.682 47.939,7.682 47.813,7.68 47.702,7.654 47.606,7.602 47.51,7.551 47.434,7.483 47.38,7.4 47.325,7.317 47.296,7.227 47.295,7.132 c 0,-0.111 0.024,-0.211 0.073,-0.298 0.049,-0.088 0.119,-0.156 0.214,-0.206 0.096,-0.05 0.214,-0.076 0.357,-0.078 0.129,0.002 0.242,0.028 0.341,0.078 0.096,0.05 0.172,0.118 0.228,0.206 0.055,0.087 0.083,0.187 0.085,0.298 M 46.106,0 l 0,3.789 C 46.108,3.921 46.1,4.064 46.087,4.221 46.073,4.378 46.044,4.537 45.999,4.695 45.954,4.857 45.886,5.009 45.795,5.154 45.704,5.3 45.584,5.426 45.432,5.533 45.289,5.63 45.134,5.701 44.964,5.743 44.796,5.784 44.63,5.804 44.466,5.802 44.241,5.801 44.04,5.77 43.867,5.711 43.694,5.653 43.546,5.58 43.419,5.491 43.294,5.401 43.192,5.312 43.111,5.22 43.03,5.128 42.969,5.049 42.928,4.98 42.886,4.91 42.862,4.866 42.857,4.848 42.85,4.877 42.831,4.931 42.798,5.007 42.763,5.083 42.713,5.168 42.642,5.263 42.573,5.359 42.483,5.448 42.369,5.533 42.27,5.598 42.166,5.651 42.054,5.69 41.942,5.73 41.829,5.76 41.715,5.777 41.603,5.794 41.495,5.802 41.393,5.802 41.155,5.801 40.948,5.768 40.771,5.706 40.595,5.643 40.447,5.564 40.326,5.469 40.206,5.374 40.111,5.277 40.042,5.176 39.971,5.076 39.924,4.988 39.898,4.91 l 0,0.768 -1.1,0 0,-5.678 1.1,0 0,3.477 c 0.002,0.237 0.019,0.432 0.056,0.585 0.036,0.153 0.084,0.277 0.145,0.372 0.058,0.096 0.123,0.173 0.194,0.237 0.081,0.08 0.174,0.142 0.278,0.19 0.105,0.046 0.227,0.07 0.366,0.07 0.167,0 0.304,-0.019 0.406,-0.059 0.102,-0.038 0.188,-0.09 0.257,-0.159 0.083,-0.075 0.149,-0.162 0.198,-0.263 0.048,-0.1 0.083,-0.22 0.104,-0.36 0.02,-0.14 0.031,-0.307 0.031,-0.498 l 0,-3.592 1.08,0 0,3.477 c -0.003,0.134 0.001,0.269 0.013,0.409 0.011,0.141 0.042,0.277 0.094,0.411 0.052,0.135 0.137,0.26 0.256,0.374 0.09,0.089 0.19,0.155 0.305,0.195 0.111,0.044 0.228,0.065 0.348,0.065 0.136,0.003 0.258,-0.011 0.369,-0.038 0.111,-0.027 0.213,-0.083 0.306,-0.17 0.079,-0.079 0.134,-0.154 0.17,-0.224 0.038,-0.07 0.061,-0.127 0.07,-0.17 0.013,-0.05 0.027,-0.114 0.04,-0.194 0.013,-0.078 0.022,-0.166 0.03,-0.26 0.009,-0.095 0.012,-0.188 0.012,-0.283 l 0,-3.592 1.08,0 z M 36.394,1.692 C 36.392,1.554 36.359,1.431 36.296,1.325 36.233,1.218 36.147,1.126 36.039,1.049 35.932,0.973 35.811,0.91 35.678,0.862 35.603,0.831 35.528,0.81 35.449,0.796 35.372,0.783 35.307,0.778 35.252,0.778 c -0.185,0 -0.353,0.032 -0.503,0.097 -0.149,0.066 -0.268,0.167 -0.356,0.304 -0.091,0.139 -0.135,0.316 -0.137,0.534 0,0.054 0.003,0.112 0.009,0.174 0.006,0.064 0.017,0.121 0.032,0.168 0.054,0.173 0.148,0.314 0.284,0.423 0.135,0.109 0.303,0.188 0.505,0.239 0.203,0.051 0.431,0.075 0.686,0.075 0.115,0 0.219,-0.004 0.313,-0.016 0.095,-0.009 0.169,-0.02 0.225,-0.03 0.055,-0.009 0.082,-0.014 0.084,-0.016 l 0,-1.038 z M 37.505,0 l 0,3.726 c 0.002,0.248 -0.012,0.461 -0.038,0.639 -0.028,0.179 -0.076,0.338 -0.145,0.478 -0.069,0.142 -0.168,0.278 -0.295,0.41 -0.166,0.173 -0.389,0.311 -0.673,0.413 -0.283,0.102 -0.629,0.156 -1.04,0.158 C 35.071,5.822 34.856,5.802 34.669,5.765 34.484,5.729 34.327,5.684 34.201,5.637 34.076,5.588 33.981,5.545 33.917,5.508 33.853,5.471 33.82,5.451 33.82,5.45 L 33.623,4.453 c 0,0.004 0.031,0.03 0.093,0.078 0.061,0.05 0.152,0.107 0.275,0.175 0.123,0.065 0.274,0.125 0.455,0.176 0.182,0.052 0.391,0.084 0.63,0.09 0.3,-0.001 0.542,-0.034 0.725,-0.1 0.182,-0.063 0.314,-0.152 0.396,-0.263 0.075,-0.095 0.125,-0.192 0.152,-0.291 0.028,-0.1 0.043,-0.195 0.045,-0.287 0.002,-0.092 0.002,-0.172 0,-0.242 l 0,-0.29 c -0.002,0 -0.029,0.005 -0.086,0.013 C 36.25,3.521 36.174,3.528 36.076,3.537 35.977,3.545 35.867,3.55 35.74,3.55 35.524,3.55 35.307,3.537 35.088,3.506 34.868,3.476 34.657,3.426 34.454,3.357 34.251,3.289 34.064,3.195 33.894,3.081 33.723,2.967 33.577,2.825 33.457,2.657 33.361,2.517 33.289,2.381 33.242,2.244 33.193,2.109 33.163,1.986 33.147,1.874 33.129,1.761 33.123,1.669 33.124,1.598 33.123,1.481 33.136,1.349 33.166,1.204 33.193,1.06 33.242,0.913 33.311,0.768 33.38,0.621 33.476,0.484 33.596,0.359 33.72,0.234 33.873,0.132 34.06,0.052 c 0.185,-0.08 0.41,-0.125 0.674,-0.135 0.28,-0.005 0.529,0.026 0.749,0.094 0.219,0.067 0.411,0.162 0.574,0.286 0.163,0.126 0.299,0.272 0.41,0.44 l 0,-0.332 C 36.465,0.351 36.469,0.297 36.478,0.242 36.486,0.185 36.51,0.137 36.55,0.093 36.583,0.059 36.624,0.036 36.675,0.023 36.725,0.011 36.771,0.004 36.816,0.002 36.861,0 36.894,0 36.913,0 l 0.592,0 z m -5.351,2.792 0,4.879 -1.277,0 0,-4.879 C 30.878,2.618 30.873,2.439 30.863,2.255 30.853,2.074 30.828,1.898 30.79,1.73 30.753,1.56 30.695,1.41 30.617,1.277 30.508,1.115 30.367,0.991 30.198,0.906 30.027,0.822 29.828,0.778 29.599,0.778 29.43,0.78 29.272,0.797 29.126,0.831 28.979,0.863 28.849,0.903 28.736,0.947 28.625,0.991 28.535,1.03 28.472,1.068 28.406,1.104 28.371,1.125 28.364,1.131 l 0.281,-1.11 c 0,-0.002 0.028,-0.016 0.083,-0.043 0.055,-0.028 0.133,-0.061 0.236,-0.098 0.104,-0.036 0.231,-0.069 0.378,-0.097 0.145,-0.027 0.311,-0.041 0.496,-0.042 0.073,-0.002 0.171,0.001 0.295,0.01 0.124,0.008 0.263,0.029 0.413,0.062 0.15,0.033 0.301,0.085 0.453,0.156 0.151,0.071 0.291,0.168 0.417,0.291 0.13,0.122 0.241,0.257 0.334,0.406 0.094,0.149 0.17,0.322 0.23,0.517 0.059,0.195 0.103,0.424 0.132,0.687 0.028,0.263 0.042,0.571 0.042,0.922 M 65.333,0 l 0,3.81 C 65.335,3.983 65.326,4.154 65.307,4.32 65.29,4.486 65.253,4.646 65.2,4.799 65.145,4.951 65.065,5.097 64.959,5.232 64.817,5.429 64.63,5.573 64.397,5.666 64.163,5.758 63.892,5.804 63.579,5.802 63.335,5.799 63.124,5.765 62.942,5.697 62.76,5.63 62.61,5.547 62.485,5.448 62.363,5.351 62.267,5.254 62.198,5.159 62.129,5.064 62.084,4.988 62.063,4.931 l 0,0.747 -1.111,0 0,-5.678 1.111,0 0,3.499 c -0.002,0.118 0.007,0.249 0.024,0.388 0.016,0.141 0.052,0.28 0.107,0.416 0.056,0.137 0.141,0.26 0.253,0.368 0.097,0.091 0.204,0.158 0.326,0.206 0.119,0.05 0.262,0.074 0.432,0.074 0.248,-10e-4 0.441,-0.041 0.583,-0.117 0.142,-0.077 0.244,-0.18 0.309,-0.31 0.066,-0.129 0.107,-0.275 0.123,-0.436 0.018,-0.161 0.026,-0.324 0.024,-0.496 l 0,-3.592 1.089,0 z M 58.57,1.692 C 58.568,1.554 58.535,1.431 58.47,1.325 58.409,1.218 58.322,1.126 58.215,1.049 58.108,0.973 57.986,0.91 57.853,0.862 57.779,0.831 57.702,0.81 57.625,0.796 57.547,0.783 57.481,0.778 57.427,0.778 c -0.185,0 -0.353,0.032 -0.503,0.097 -0.148,0.066 -0.268,0.167 -0.357,0.304 -0.089,0.139 -0.134,0.316 -0.136,0.534 0,0.054 0.003,0.112 0.008,0.174 0.008,0.064 0.018,0.121 0.034,0.168 0.053,0.173 0.146,0.314 0.284,0.423 0.134,0.109 0.302,0.188 0.504,0.239 0.202,0.051 0.431,0.075 0.685,0.075 0.117,0 0.221,-0.004 0.314,-0.016 0.095,-0.009 0.17,-0.02 0.225,-0.03 C 58.54,2.737 58.568,2.732 58.57,2.73 l 0,-1.038 z M 59.68,0 l 0,3.726 C 59.682,3.974 59.668,4.187 59.642,4.365 59.615,4.544 59.566,4.703 59.496,4.843 59.428,4.985 59.329,5.121 59.203,5.253 59.036,5.426 58.814,5.564 58.53,5.666 58.246,5.768 57.9,5.822 57.49,5.824 57.246,5.822 57.031,5.802 56.844,5.765 56.659,5.729 56.502,5.684 56.376,5.637 56.251,5.588 56.156,5.545 56.092,5.508 56.028,5.471 55.995,5.451 55.995,5.45 L 55.798,4.453 c 0,0.004 0.031,0.03 0.094,0.078 0.06,0.05 0.152,0.107 0.274,0.175 0.124,0.065 0.273,0.125 0.455,0.176 0.182,0.052 0.391,0.084 0.63,0.09 0.299,-0.001 0.542,-0.034 0.725,-0.1 0.182,-0.063 0.315,-0.152 0.396,-0.263 0.075,-0.095 0.125,-0.192 0.153,-0.291 0.027,-0.1 0.043,-0.195 0.045,-0.287 10e-4,-0.092 10e-4,-0.172 0,-0.242 l 0,-0.29 c -0.002,0 -0.03,0.005 -0.087,0.013 C 58.426,3.521 58.35,3.528 58.251,3.537 58.152,3.545 58.042,3.55 57.916,3.55 57.699,3.55 57.481,3.537 57.263,3.506 57.044,3.476 56.833,3.426 56.63,3.357 56.426,3.289 56.239,3.195 56.069,3.081 55.898,2.967 55.753,2.825 55.632,2.657 55.537,2.517 55.464,2.381 55.417,2.244 55.369,2.109 55.338,1.986 55.322,1.874 55.305,1.761 55.298,1.669 55.3,1.598 55.298,1.481 55.312,1.349 55.34,1.204 55.369,1.06 55.417,0.913 55.486,0.768 c 0.069,-0.147 0.165,-0.284 0.286,-0.409 0.123,-0.125 0.277,-0.227 0.464,-0.307 0.184,-0.08 0.409,-0.125 0.673,-0.135 0.28,-0.005 0.529,0.026 0.749,0.094 0.22,0.067 0.412,0.162 0.574,0.286 0.163,0.126 0.3,0.272 0.41,0.44 l 0,-0.332 C 58.64,0.351 58.644,0.297 58.652,0.242 58.662,0.185 58.685,0.137 58.725,0.093 58.758,0.059 58.799,0.036 58.85,0.023 58.899,0.011 58.947,0.004 58.991,0.002 59.036,0 59.07,0 59.088,0 l 0.592,0 z m 34.618,7.703 -1.079,0 0,-7.703 1.079,0 0,7.703 z M 90.732,1.692 C 90.73,1.554 90.697,1.431 90.633,1.325 90.571,1.218 90.484,1.126 90.377,1.049 90.27,0.973 90.149,0.91 90.016,0.862 89.942,0.831 89.865,0.81 89.788,0.796 89.709,0.783 89.643,0.778 89.59,0.778 c -0.185,0 -0.353,0.032 -0.504,0.097 -0.148,0.066 -0.268,0.167 -0.356,0.304 -0.089,0.139 -0.135,0.316 -0.137,0.534 0,0.054 0.004,0.112 0.009,0.174 0.007,0.064 0.017,0.121 0.033,0.168 0.054,0.173 0.147,0.314 0.283,0.423 0.136,0.109 0.304,0.188 0.506,0.239 0.202,0.051 0.431,0.075 0.685,0.075 0.116,0 0.219,-0.004 0.313,-0.016 0.095,-0.009 0.17,-0.02 0.225,-0.03 0.055,-0.009 0.083,-0.014 0.085,-0.016 l 0,-1.038 z M 91.842,0 l 0,3.726 c 0.002,0.248 -0.011,0.461 -0.037,0.639 -0.029,0.179 -0.077,0.338 -0.146,0.478 -0.069,0.142 -0.168,0.278 -0.294,0.41 -0.166,0.173 -0.389,0.311 -0.673,0.413 -0.284,0.102 -0.63,0.156 -1.04,0.158 C 89.409,5.822 89.194,5.802 89.006,5.765 88.822,5.729 88.664,5.684 88.538,5.637 88.414,5.588 88.318,5.545 88.254,5.508 88.19,5.471 88.158,5.451 88.158,5.45 L 87.96,4.453 c 0,0.004 0.032,0.03 0.093,0.078 0.061,0.05 0.153,0.107 0.276,0.175 0.122,0.065 0.273,0.125 0.455,0.176 0.181,0.052 0.39,0.084 0.629,0.09 0.3,-0.001 0.542,-0.034 0.725,-0.1 0.182,-0.063 0.315,-0.152 0.396,-0.263 0.075,-0.095 0.125,-0.192 0.153,-0.291 0.028,-0.1 0.043,-0.195 0.045,-0.287 0.002,-0.092 0.002,-0.172 0,-0.242 l 0,-0.29 c -0.002,0 -0.03,0.005 -0.087,0.013 C 90.588,3.521 90.512,3.528 90.414,3.537 90.315,3.545 90.204,3.55 90.078,3.55 89.861,3.55 89.643,3.537 89.425,3.506 89.206,3.476 88.995,3.426 88.793,3.357 88.588,3.289 88.402,3.195 88.231,3.081 88.061,2.967 87.915,2.825 87.794,2.657 87.699,2.517 87.627,2.381 87.58,2.244 87.531,2.109 87.5,1.986 87.484,1.874 87.467,1.761 87.46,1.669 87.461,1.598 87.46,1.481 87.474,1.349 87.504,1.204 87.531,1.06 87.58,0.913 87.648,0.768 c 0.07,-0.147 0.165,-0.284 0.286,-0.409 0.123,-0.125 0.277,-0.227 0.464,-0.307 0.185,-0.08 0.41,-0.125 0.672,-0.135 0.281,-0.005 0.531,0.026 0.75,0.094 0.22,0.067 0.412,0.162 0.574,0.286 0.163,0.126 0.3,0.272 0.411,0.44 l 0,-0.332 C 90.803,0.351 90.807,0.297 90.815,0.242 90.824,0.185 90.848,0.137 90.888,0.093 90.92,0.059 90.962,0.036 91.012,0.023 91.062,0.011 91.109,0.004 91.154,0.002 91.199,0 91.232,0 91.251,0 l 0.591,0 z m -5.486,5.678 -1.1,0 0,-5.678 1.1,0 0,5.678 z m 0.093,1.454 C 86.448,7.242 86.42,7.34 86.363,7.422 86.306,7.504 86.23,7.568 86.131,7.613 86.032,7.658 85.921,7.682 85.795,7.682 85.669,7.68 85.559,7.654 85.463,7.602 85.366,7.551 85.291,7.483 85.237,7.4 85.181,7.317 85.153,7.227 85.152,7.132 c 0,-0.111 0.024,-0.211 0.073,-0.298 0.047,-0.088 0.119,-0.156 0.213,-0.206 0.096,-0.05 0.215,-0.076 0.357,-0.078 0.13,0.002 0.242,0.028 0.341,0.078 0.097,0.05 0.173,0.118 0.229,0.206 0.055,0.087 0.083,0.187 0.084,0.298 M 84.191,1.609 c -0.003,0.276 -0.064,0.512 -0.185,0.709 -0.119,0.199 -0.282,0.369 -0.488,0.512 -0.206,0.143 -0.437,0.269 -0.697,0.378 -0.126,0.051 -0.256,0.107 -0.39,0.166 -0.131,0.058 -0.254,0.125 -0.368,0.2 -0.114,0.075 -0.206,0.161 -0.275,0.258 -0.071,0.099 -0.108,0.212 -0.109,0.341 0.001,0.23 0.081,0.407 0.235,0.53 0.156,0.123 0.376,0.185 0.657,0.186 0.228,0.004 0.425,-0.017 0.594,-0.058 0.17,-0.044 0.311,-0.094 0.426,-0.151 0.112,-0.059 0.199,-0.111 0.256,-0.156 0.057,-0.045 0.085,-0.067 0.085,-0.071 l -0.156,0.935 c 0,0.001 -0.025,0.022 -0.076,0.06 -0.052,0.04 -0.135,0.084 -0.249,0.133 -0.115,0.049 -0.265,0.092 -0.45,0.127 -0.185,0.035 -0.412,0.048 -0.678,0.043 -0.248,0 -0.48,-0.032 -0.696,-0.1 C 81.412,5.585 81.224,5.487 81.06,5.355 80.896,5.225 80.768,5.064 80.677,4.87 80.586,4.678 80.539,4.457 80.537,4.205 80.539,3.945 80.586,3.725 80.673,3.541 80.762,3.36 80.879,3.206 81.025,3.079 81.17,2.954 81.331,2.844 81.506,2.752 81.68,2.663 81.856,2.58 82.028,2.504 82.203,2.425 82.364,2.348 82.509,2.265 82.655,2.182 82.773,2.087 82.86,1.978 82.949,1.869 82.996,1.736 82.997,1.577 82.997,1.318 82.916,1.128 82.753,1.004 82.591,0.881 82.343,0.818 82.011,0.82 81.812,0.824 81.618,0.85 81.43,0.901 81.243,0.953 81.071,1.012 80.921,1.079 80.77,1.147 80.65,1.206 80.559,1.258 80.471,1.31 80.424,1.335 80.423,1.339 L 80.578,0.26 c 0.073,-0.044 0.177,-0.096 0.314,-0.155 0.138,-0.058 0.315,-0.109 0.529,-0.152 0.215,-0.041 0.474,-0.06 0.777,-0.057 0.292,0 0.564,0.043 0.818,0.132 0.253,0.086 0.478,0.215 0.677,0.388 0.152,0.129 0.273,0.294 0.362,0.494 0.089,0.201 0.134,0.435 0.136,0.699 m -5.715,1.183 c 0,-0.401 -0.043,-0.75 -0.13,-1.051 C 78.26,1.438 78.126,1.204 77.949,1.035 77.77,0.867 77.545,0.781 77.271,0.778 76.962,0.777 76.709,0.848 76.514,0.991 76.32,1.135 76.179,1.354 76.088,1.652 c -0.091,0.298 -0.136,0.679 -0.134,1.14 -0.002,0.282 0.013,0.554 0.048,0.81 0.034,0.257 0.097,0.488 0.19,0.69 0.093,0.203 0.227,0.362 0.402,0.479 0.172,0.118 0.399,0.179 0.677,0.18 C 77.491,4.946 77.673,4.9 77.82,4.813 77.966,4.727 78.083,4.611 78.172,4.464 78.26,4.318 78.326,4.152 78.368,3.969 78.413,3.783 78.443,3.592 78.457,3.39 78.471,3.188 78.478,2.99 78.476,2.792 m 1.173,0.021 C 79.651,3.126 79.626,3.429 79.576,3.72 79.526,4.012 79.447,4.283 79.334,4.533 79.222,4.782 79.075,5.002 78.889,5.191 78.704,5.379 78.476,5.526 78.206,5.634 77.936,5.74 77.618,5.798 77.251,5.802 76.887,5.801 76.571,5.748 76.296,5.643 76.023,5.537 75.789,5.393 75.597,5.204 75.403,5.018 75.247,4.798 75.127,4.547 75.007,4.296 74.919,4.024 74.863,3.73 74.808,3.436 74.781,3.13 74.781,2.813 74.779,2.378 74.822,1.984 74.912,1.63 75,1.275 75.14,0.97 75.334,0.715 c 0.194,-0.255 0.45,-0.452 0.765,-0.589 0.315,-0.139 0.699,-0.207 1.152,-0.209 0.379,-0.002 0.718,0.07 1.014,0.22 0.298,0.146 0.548,0.355 0.754,0.62 0.204,0.268 0.362,0.575 0.469,0.927 0.108,0.35 0.161,0.726 0.161,1.129 M 73.986,2.211 c 0,0.248 -0.038,0.47 -0.111,0.668 -0.074,0.198 -0.178,0.377 -0.315,0.536 -0.145,0.177 -0.311,0.331 -0.498,0.46 -0.187,0.129 -0.382,0.243 -0.586,0.341 -0.206,0.099 -0.409,0.193 -0.608,0.277 -0.201,0.086 -0.385,0.173 -0.559,0.263 -0.171,0.089 -0.316,0.188 -0.438,0.3 -0.072,0.075 -0.127,0.147 -0.169,0.212 -0.041,0.067 -0.07,0.137 -0.086,0.208 -0.018,0.071 -0.025,0.149 -0.025,0.234 -10e-4,0.143 0.031,0.285 0.097,0.427 0.067,0.142 0.18,0.267 0.339,0.372 0.109,0.072 0.249,0.127 0.425,0.164 0.174,0.037 0.385,0.053 0.634,0.053 0.132,0 0.259,-0.008 0.384,-0.027 0.126,-0.017 0.244,-0.038 0.353,-0.065 0.163,-0.035 0.299,-0.073 0.41,-0.112 0.111,-0.039 0.195,-0.076 0.256,-0.108 0.062,-0.034 0.099,-0.055 0.113,-0.071 l -0.26,1.1 C 73.341,7.45 73.31,7.469 73.249,7.498 73.188,7.53 73.093,7.564 72.966,7.602 72.839,7.638 72.673,7.671 72.47,7.701 72.266,7.729 72.02,7.742 71.733,7.745 71.512,7.746 71.292,7.727 71.077,7.687 70.863,7.647 70.655,7.583 70.458,7.493 70.261,7.404 70.076,7.284 69.906,7.132 69.754,7 69.633,6.856 69.539,6.704 69.446,6.552 69.378,6.394 69.335,6.234 69.294,6.073 69.273,5.912 69.273,5.751 69.271,5.57 69.29,5.391 69.327,5.22 69.363,5.047 69.425,4.886 69.512,4.733 69.614,4.563 69.74,4.415 69.894,4.288 70.048,4.163 70.22,4.049 70.406,3.948 70.595,3.848 70.79,3.751 70.991,3.658 71.194,3.564 71.394,3.465 71.591,3.361 71.789,3.256 71.975,3.135 72.148,3 72.259,2.919 72.351,2.834 72.425,2.747 72.5,2.662 72.555,2.565 72.592,2.46 72.627,2.355 72.647,2.234 72.647,2.097 72.647,1.886 72.605,1.708 72.522,1.56 72.44,1.414 72.314,1.285 72.148,1.173 72.064,1.111 71.963,1.064 71.847,1.029 71.731,0.995 71.615,0.97 71.498,0.955 71.379,0.939 71.275,0.931 71.181,0.927 71.089,0.923 71.024,0.923 70.985,0.923 c -0.118,0 -0.238,0.008 -0.356,0.021 -0.116,0.015 -0.23,0.031 -0.339,0.053 -0.238,0.046 -0.437,0.091 -0.598,0.138 -0.161,0.044 -0.284,0.083 -0.367,0.114 -0.083,0.032 -0.128,0.046 -0.135,0.049 l 0.28,-1.08 c 0.005,-0.002 0.042,-0.018 0.109,-0.052 0.068,-0.033 0.172,-0.072 0.312,-0.114 0.139,-0.043 0.318,-0.082 0.537,-0.115 0.219,-0.032 0.48,-0.049 0.786,-0.051 0.234,-0.002 0.478,0.017 0.73,0.057 0.254,0.039 0.502,0.108 0.744,0.205 0.241,0.098 0.459,0.234 0.654,0.411 0.196,0.174 0.351,0.398 0.466,0.67 0.115,0.269 0.174,0.597 0.178,0.982" />
        </g>
        <g
           transform="translate(28.9077,40.6811)"
           id="g13954">
          <path
             id="path13956"
             style="fill:#2b3078;fill-opacity:1;fill-rule:nonzero;stroke:none"
             d="M 0,0 C 0.468,3.253 3.722,4.127 4.037,7.095 2.568,6.443 0.811,6.648 -0.476,7.712 -1.902,5.142 -1.979,2.617 0,0" />
        </g>
        <g
           transform="translate(35.1967,50.106)"
           id="g13958">
          <path
             id="path13960"
             style="fill:#2b3078;fill-opacity:1;fill-rule:nonzero;stroke:none"
             d="M 0,0 C 1.665,0.246 3.089,1.413 4.452,2.565 6.339,4.16 8.964,6.128 11.466,5.937 6.994,7.317 2.157,6.336 -0.796,4.519 0.339,3.26 0.604,1.495 0,0" />
        </g>
        <g
           transform="translate(56.5698,39.6677)"
           id="g13962">
          <path
             id="path13964"
             style="fill:#2b3078;fill-opacity:1;fill-rule:nonzero;stroke:none"
             d="m 0,0 c -0.468,-3.252 -3.723,-4.127 -4.037,-7.095 1.468,0.653 3.226,0.448 4.513,-0.617 C 1.902,-5.14 1.979,-2.617 0,0" />
        </g>
        <g
           transform="translate(50.2809,30.2431)"
           id="g13966">
          <path
             id="path13968"
             style="fill:#2b3078;fill-opacity:1;fill-rule:nonzero;stroke:none"
             d="m 0,0 c -1.665,-0.246 -3.089,-1.413 -4.453,-2.565 -1.886,-1.594 -4.511,-3.563 -7.013,-3.373 4.472,-1.38 9.309,-0.398 12.262,1.419 C -0.339,-3.26 -0.604,-1.494 0,0" />
        </g>
        <g
           transform="translate(43.246,54.0057)"
           id="g13970">
          <path
             id="path13972"
             style="fill:#009f3c;fill-opacity:1;fill-rule:nonzero;stroke:none"
             d="M 0,0 C 3.252,-0.468 4.127,-3.723 7.094,-4.037 6.441,-2.569 6.647,-0.811 7.711,0.475 5.14,1.902 2.616,1.978 0,0" />
        </g>
        <g
           transform="translate(52.6699,47.7169)"
           id="g13974">
          <path
             id="path13976"
             style="fill:#009f3c;fill-opacity:1;fill-rule:nonzero;stroke:none"
             d="M 0,0 C 0.247,-1.665 1.413,-3.089 2.565,-4.453 4.16,-6.34 6.128,-8.965 5.938,-11.466 7.318,-6.994 6.336,-2.158 4.519,0.796 3.26,-0.339 1.496,-0.605 0,0" />
        </g>
        <g
           transform="translate(42.2318,26.3431)"
           id="g13978">
          <path
             id="path13980"
             style="fill:#009f3c;fill-opacity:1;fill-rule:nonzero;stroke:none"
             d="M 0,0 C -3.252,0.468 -4.127,3.723 -7.095,4.038 -6.442,2.569 -6.647,0.811 -7.711,-0.476 -5.14,-1.903 -2.616,-1.979 0,0" />
        </g>
        <g
           transform="translate(32.8078,32.6321)"
           id="g13982">
          <path
             id="path13984"
             style="fill:#009f3c;fill-opacity:1;fill-rule:nonzero;stroke:none"
             d="M 0,0 C -0.247,1.666 -1.413,3.09 -2.566,4.453 -4.16,6.339 -6.128,8.964 -5.938,11.466 -7.318,6.994 -6.336,2.157 -4.519,-0.796 -3.26,0.339 -1.495,0.605 0,0" />
        </g>
        <g
           transform="translate(56.8502,54.2868)"
           id="g13986">
          <path
             id="path13988"
             style="fill:#009f3c;fill-opacity:1;fill-rule:nonzero;stroke:none"
             d="m 0,0 c 1.381,-1.381 1.381,-3.62 0,-5.001 -1.38,-1.381 -3.619,-1.381 -5,0 -1.381,1.381 -1.381,3.62 0,5.001 1.381,1.381 3.62,1.381 5,0" />
        </g>
        <g
           transform="translate(33.6274,31.0624)"
           id="g13990">
          <path
             id="path13992"
             style="fill:#009f3c;fill-opacity:1;fill-rule:nonzero;stroke:none"
             d="m 0,0 c 1.38,-1.381 1.38,-3.619 0,-5 -1.381,-1.38 -3.62,-1.38 -5.001,0 -1.38,1.381 -1.38,3.619 0,5 1.381,1.381 3.62,1.381 5.001,0" />
        </g>
        <g
           transform="translate(56.8502,26.0624)"
           id="g13994">
          <path
             id="path13996"
             style="fill:#2b3078;fill-opacity:1;fill-rule:nonzero;stroke:none"
             d="m 0,0 c -1.38,-1.38 -3.619,-1.38 -5,0 -1.381,1.381 -1.381,3.619 0,5 1.381,1.381 3.62,1.381 5,0 C 1.381,3.619 1.381,1.381 0,0" />
        </g>
        <g
           transform="translate(33.6274,49.2856)"
           id="g13998">
          <path
             id="path14000"
             style="fill:#2b3078;fill-opacity:1;fill-rule:nonzero;stroke:none"
             d="m 0,0 c -1.381,-1.38 -3.62,-1.38 -5.001,0 -1.38,1.381 -1.38,3.621 0,5.001 1.381,1.381 3.62,1.381 5.001,0 C 1.38,3.621 1.38,1.381 0,0" />
        </g>
        <g
           transform="translate(41.2332,37.1942)"
           id="g14002">
          <path
             id="path14004"
             style="fill:#009f3c;fill-opacity:1;fill-rule:nonzero;stroke:none"
             d="m 0,0 0,-1.244 3.011,0 0,2.719 2.589,-2.502 c 0.218,-0.208 0.2,-0.324 0.203,-0.517 l 0,-0.855 c 0,-0.012 -0.001,-0.025 -0.001,-0.038 l 0,-0.011 C 5.801,-2.457 5.801,-2.467 5.801,-2.477 L 5.8,-2.487 C 5.799,-2.499 5.799,-2.512 5.798,-2.524 L 5.797,-2.527 c 0,-0.012 -10e-4,-0.023 -0.003,-0.034 L 5.793,-2.573 C 5.792,-2.582 5.791,-2.591 5.79,-2.601 L 5.789,-2.609 C 5.787,-2.622 5.786,-2.634 5.784,-2.645 L 5.783,-2.654 C 5.781,-2.664 5.779,-2.673 5.778,-2.683 L 5.776,-2.693 C 5.774,-2.703 5.772,-2.712 5.771,-2.722 L 5.769,-2.731 C 5.766,-2.742 5.764,-2.754 5.761,-2.765 L 5.759,-2.774 C 5.757,-2.783 5.755,-2.793 5.752,-2.802 L 5.749,-2.812 C 5.747,-2.822 5.744,-2.833 5.741,-2.844 L 5.74,-2.847 C 5.737,-2.859 5.734,-2.87 5.73,-2.881 L 5.727,-2.892 C 5.724,-2.9 5.721,-2.909 5.719,-2.917 L 5.715,-2.927 C 5.711,-2.938 5.707,-2.948 5.704,-2.958 L 5.701,-2.966 C 5.698,-2.974 5.694,-2.985 5.69,-2.994 L 5.686,-3.005 C 5.683,-3.014 5.68,-3.021 5.676,-3.029 L 5.673,-3.039 C 5.668,-3.049 5.663,-3.06 5.658,-3.07 L 5.656,-3.078 C 5.651,-3.086 5.648,-3.095 5.644,-3.103 L 5.638,-3.114 C 5.634,-3.121 5.63,-3.129 5.627,-3.137 L 5.622,-3.146 c -0.005,-0.01 -0.01,-0.02 -0.016,-0.03 L 5.601,-3.186 C 5.597,-3.193 5.593,-3.2 5.589,-3.207 L 5.582,-3.219 C 5.578,-3.226 5.574,-3.232 5.57,-3.239 L 5.564,-3.25 C 5.559,-3.258 5.553,-3.268 5.547,-3.277 L 5.539,-3.289 C 5.535,-3.295 5.532,-3.3 5.528,-3.306 L 5.519,-3.319 C 5.515,-3.325 5.511,-3.331 5.506,-3.337 L 5.497,-3.351 C 5.491,-3.359 5.486,-3.366 5.48,-3.373 L 5.471,-3.386 C 5.468,-3.39 5.463,-3.396 5.46,-3.401 L 5.45,-3.413 C 5.445,-3.419 5.439,-3.426 5.434,-3.433 5.43,-3.437 5.426,-3.443 5.422,-3.448 5.417,-3.453 5.413,-3.458 5.408,-3.465 L 5.398,-3.477 C 5.393,-3.481 5.389,-3.486 5.384,-3.49 5.381,-3.495 5.377,-3.499 5.374,-3.503 5.368,-3.509 5.362,-3.515 5.356,-3.522 5.351,-3.527 5.346,-3.532 5.341,-3.537 5.338,-3.541 5.334,-3.546 5.329,-3.549 L 5.317,-3.562 5.304,-3.575 C 5.3,-3.578 5.296,-3.582 5.292,-3.586 l -10e-4,0 C 5.284,-3.593 5.277,-3.6 5.27,-3.606 l 0,0 C 5.266,-3.61 5.261,-3.615 5.257,-3.618 5.252,-3.622 5.248,-3.626 5.244,-3.63 L 5.231,-3.641 5.218,-3.653 C 5.21,-3.66 5.201,-3.666 5.193,-3.673 L 5.181,-3.682 C 5.176,-3.686 5.172,-3.69 5.167,-3.694 L 5.154,-3.704 C 5.149,-3.707 5.144,-3.71 5.139,-3.714 5.135,-3.717 5.131,-3.72 5.127,-3.723 5.117,-3.73 5.108,-3.737 5.097,-3.744 L 5.087,-3.751 C 5.082,-3.755 5.076,-3.759 5.07,-3.762 L 5.059,-3.77 C 5.053,-3.773 5.047,-3.777 5.042,-3.781 L 5.03,-3.788 C 5.021,-3.794 5.011,-3.8 5.001,-3.805 L 4.988,-3.814 C 4.982,-3.818 4.976,-3.82 4.971,-3.824 L 4.958,-3.831 C 4.952,-3.834 4.946,-3.837 4.941,-3.84 L 4.934,-3.844 C 4.921,-3.85 4.91,-3.857 4.897,-3.862 L 4.884,-3.87 4.867,-3.878 C 4.862,-3.88 4.857,-3.882 4.852,-3.885 4.643,-3.981 4.411,-4.034 4.166,-4.034 L 0,-4.034 0,-5.278 -2.663,-2.639 0,0 Z m 3.011,4.486 2.719,0 0,-3.011 -1.244,0 2.639,-2.664 2.639,2.664 -1.244,0 0,4.166 C 8.52,5.886 8.467,6.118 8.37,6.327 8.368,6.332 8.365,6.337 8.363,6.342 L 8.355,6.359 8.348,6.372 C 8.342,6.384 8.336,6.396 8.33,6.408 L 8.326,6.415 C 8.323,6.421 8.32,6.427 8.316,6.433 L 8.309,6.446 C 8.306,6.451 8.303,6.457 8.3,6.461 L 8.292,6.476 C 8.286,6.486 8.28,6.496 8.274,6.505 L 8.267,6.516 C 8.263,6.523 8.259,6.528 8.255,6.534 L 8.248,6.545 C 8.244,6.551 8.241,6.557 8.237,6.562 L 8.23,6.572 C 8.223,6.583 8.216,6.592 8.209,6.602 8.206,6.605 8.203,6.61 8.2,6.613 8.197,6.618 8.193,6.623 8.189,6.628 L 8.179,6.642 C 8.175,6.647 8.172,6.651 8.168,6.656 L 8.158,6.667 C 8.152,6.676 8.145,6.685 8.138,6.692 L 8.127,6.705 8.116,6.718 C 8.112,6.723 8.108,6.727 8.104,6.731 8.1,6.736 8.096,6.741 8.092,6.744 l 0,0.001 C 8.085,6.752 8.079,6.76 8.072,6.767 l 0,0 C 8.068,6.77 8.064,6.775 8.06,6.779 L 8.048,6.791 8.035,6.804 C 8.031,6.809 8.027,6.812 8.022,6.816 8.017,6.821 8.013,6.826 8.008,6.83 8.002,6.836 7.995,6.843 7.989,6.849 7.984,6.852 7.98,6.856 7.977,6.859 7.971,6.864 7.967,6.868 7.962,6.872 L 7.95,6.882 C 7.944,6.887 7.939,6.892 7.933,6.896 7.928,6.901 7.924,6.905 7.919,6.909 7.912,6.915 7.905,6.919 7.899,6.925 L 7.887,6.934 C 7.882,6.939 7.876,6.943 7.871,6.946 L 7.859,6.956 C 7.852,6.961 7.844,6.967 7.837,6.971 L 7.823,6.981 C 7.817,6.985 7.811,6.99 7.805,6.994 L 7.791,7.002 C 7.786,7.006 7.781,7.01 7.775,7.013 L 7.762,7.022 C 7.753,7.027 7.744,7.034 7.735,7.039 L 7.725,7.045 C 7.718,7.049 7.712,7.052 7.705,7.057 L 7.693,7.064 C 7.686,7.067 7.679,7.072 7.672,7.075 L 7.661,7.081 C 7.652,7.086 7.642,7.092 7.632,7.096 L 7.623,7.101 C 7.615,7.106 7.607,7.11 7.599,7.113 L 7.589,7.118 C 7.58,7.122 7.572,7.126 7.564,7.13 L 7.557,7.133 C 7.546,7.138 7.535,7.142 7.525,7.147 L 7.515,7.152 C 7.507,7.155 7.499,7.157 7.491,7.161 L 7.48,7.166 C 7.471,7.169 7.461,7.173 7.452,7.177 L 7.444,7.179 C 7.434,7.183 7.424,7.186 7.413,7.19 L 7.402,7.194 C 7.394,7.196 7.386,7.199 7.378,7.201 L 7.368,7.204 C 7.356,7.208 7.344,7.212 7.333,7.215 l -0.003,0 C 7.319,7.219 7.308,7.222 7.298,7.224 L 7.288,7.227 C 7.278,7.23 7.269,7.231 7.259,7.234 L 7.252,7.236 C 7.24,7.238 7.228,7.241 7.216,7.243 L 7.208,7.245 C 7.198,7.247 7.189,7.249 7.18,7.251 L 7.168,7.253 C 7.159,7.254 7.15,7.256 7.14,7.258 L 7.132,7.259 C 7.119,7.261 7.107,7.263 7.095,7.264 L 7.087,7.265 C 7.078,7.266 7.067,7.267 7.058,7.267 L 7.047,7.269 C 7.036,7.27 7.025,7.271 7.013,7.272 l -0.003,0 C 6.997,7.273 6.984,7.274 6.972,7.275 l -0.01,10e-4 c -0.009,0 -0.019,0.001 -0.028,0.001 l -0.012,0 c -0.012,0 -0.025,0 -0.037,0 l -0.855,0 C 5.836,7.275 5.721,7.293 5.513,7.075 L 3.011,4.486 Z M 0,1.475 l -2.718,0 0,3.011 1.243,0 -2.639,2.663 -2.639,-2.663 1.244,0 0,-4.166 c 0,-0.246 0.054,-0.478 0.15,-0.687 0.002,-0.004 0.005,-0.009 0.007,-0.014 l 0.008,-0.018 0.007,-0.013 c 0.006,-0.011 0.012,-0.024 0.018,-0.036 l 0.004,-0.006 c 0.003,-0.007 0.007,-0.013 0.01,-0.018 l 0.007,-0.013 c 0.003,-0.006 0.006,-0.011 0.01,-0.017 l 0.008,-0.014 c 0.005,-0.01 0.011,-0.02 0.018,-0.029 l 0.007,-0.011 c 0.003,-0.005 0.007,-0.011 0.011,-0.017 l 0.007,-0.012 c 0.004,-0.005 0.008,-0.011 0.012,-0.016 l 0.007,-0.011 c 0.006,-0.01 0.013,-0.019 0.02,-0.029 0.003,-0.004 0.006,-0.008 0.009,-0.012 0.004,-0.005 0.007,-0.01 0.011,-0.015 l 0.01,-0.013 c 0.004,-0.004 0.007,-0.009 0.011,-0.014 l 0.01,-0.012 c 0.006,-0.008 0.013,-0.017 0.021,-0.026 l 0.01,-0.012 0.012,-0.013 c 0.004,-0.005 0.007,-0.008 0.011,-0.014 0.004,-0.003 0.008,-0.008 0.012,-0.012 l 0,0 c 0.006,-0.008 0.013,-0.015 0.02,-0.022 0.004,-0.004 0.008,-0.008 0.012,-0.012 l 0.012,-0.012 0.013,-0.013 c 0.004,-0.005 0.009,-0.009 0.013,-0.013 0.005,-0.005 0.009,-0.01 0.015,-0.014 0.006,-0.006 0.012,-0.012 0.019,-0.018 0.004,-0.003 0.008,-0.007 0.012,-0.011 0.005,-0.004 0.009,-0.009 0.014,-0.013 l 0.012,-0.01 c 0.005,-0.004 0.011,-0.009 0.017,-0.013 0.005,-0.005 0.01,-0.009 0.015,-0.013 0.006,-0.005 0.013,-0.011 0.02,-0.016 l 0.012,-0.01 c 0.005,-0.003 0.01,-0.008 0.015,-0.012 l 0.012,-0.009 C -4.84,-1 -4.833,-1.006 -4.826,-1.011 l 0.014,-0.009 c 0.006,-0.005 0.013,-0.009 0.018,-0.013 l 0.014,-0.009 c 0.005,-0.004 0.011,-0.007 0.016,-0.011 l 0.013,-0.008 c 0.009,-0.006 0.018,-0.012 0.027,-0.017 l 0.01,-0.006 c 0.007,-0.004 0.014,-0.008 0.02,-0.012 l 0.012,-0.007 c 0.007,-0.004 0.015,-0.008 0.021,-0.012 L -4.65,-1.12 c 0.009,-0.005 0.019,-0.011 0.029,-0.015 l 0.01,-0.006 c 0.007,-0.004 0.015,-0.008 0.023,-0.012 l 0.01,-0.005 c 0.009,-0.004 0.017,-0.007 0.026,-0.011 l 0.007,-0.003 c 0.011,-0.006 0.021,-0.01 0.032,-0.015 l 0.01,-0.004 c 0.007,-0.003 0.015,-0.006 0.023,-0.009 l 0.011,-0.005 c 0.01,-0.004 0.019,-0.007 0.029,-0.011 l 0.007,-0.002 c 0.011,-0.004 0.02,-0.008 0.031,-0.011 l 0.011,-0.004 c 0.008,-0.002 0.016,-0.005 0.024,-0.008 l 0.011,-0.003 c 0.011,-0.004 0.023,-0.007 0.034,-0.011 l 0.004,0 c 0.01,-0.003 0.021,-0.006 0.031,-0.009 l 0.01,-0.003 c 0.01,-0.002 0.019,-0.004 0.029,-0.006 l 0.008,-0.002 c 0.012,-0.003 0.023,-0.006 0.035,-0.008 l 0.009,-0.001 c 0.009,-0.003 0.018,-0.004 0.028,-0.006 l 0.011,-0.002 c 0.01,-0.002 0.018,-0.003 0.028,-0.005 l 0.009,-0.001 c 0.011,-0.002 0.024,-0.003 0.036,-0.005 l 0.008,-0.001 c 0.01,-10e-4 0.02,-0.002 0.029,-0.004 l 0.011,-10e-4 c 0.011,0 0.022,-0.002 0.034,-0.003 l 0.003,0 c 0.013,-10e-4 0.026,-0.002 0.038,-0.002 l 0.01,0 c 0.01,-0.002 0.019,-0.002 0.029,-0.002 l 0.011,0 0.038,0 0.855,0 c 0.193,0.002 0.308,-0.017 0.517,0.201 L 0,1.475 Z m 0,3.012 -2.589,2.5 c -0.218,0.209 -0.2,0.324 -0.202,0.518 l 0,0.855 c 0,0.012 0,0.024 0,0.037 l 0,0.011 c 10e-4,0.01 10e-4,0.019 0.002,0.028 l 0,0.01 c 0.001,0.013 0.002,0.027 0.002,0.038 l 10e-4,0.004 c 10e-4,0.012 0.002,0.022 0.003,0.034 l 10e-4,0.01 c 10e-4,0.01 0.002,0.02 0.003,0.029 l 0.002,0.009 c 0.001,0.012 0.002,0.024 0.004,0.036 l 0.001,0.009 c 0.002,0.009 0.004,0.019 0.006,0.028 l 10e-4,0.012 c 0.002,0.009 0.004,0.018 0.006,0.028 l 0.002,0.008 c 0.002,0.011 0.004,0.024 0.007,0.035 l 0.002,0.008 c 0.002,0.01 0.005,0.02 0.007,0.029 l 0.002,0.01 c 0.003,0.01 0.006,0.021 0.009,0.031 l 10e-4,0.003 c 0.003,0.012 0.007,0.024 0.011,0.035 l 0.002,0.011 c 0.003,0.008 0.006,0.016 0.008,0.024 l 0.004,0.011 c 0.004,0.011 0.007,0.021 0.011,0.03 l 0.003,0.008 c 0.003,0.01 0.007,0.019 0.011,0.028 l 0.004,0.012 c 0.003,0.008 0.006,0.016 0.01,0.024 l 0.004,0.009 c 0.005,0.01 0.009,0.021 0.014,0.033 l 0.003,0.006 c 0.004,0.009 0.008,0.017 0.012,0.026 l 0.005,0.01 c 0.004,0.008 0.008,0.015 0.011,0.023 l 0.005,0.01 c 0.005,0.01 0.011,0.02 0.016,0.03 l 0.006,0.009 c 0.003,0.008 0.007,0.015 0.011,0.022 l 0.007,0.012 c 0.004,0.006 0.008,0.014 0.012,0.019 l 0.006,0.011 c 0.006,0.009 0.011,0.018 0.017,0.027 l 0.008,0.012 c 0.004,0.006 0.008,0.012 0.012,0.018 l 0.008,0.013 c 0.004,0.005 0.009,0.011 0.013,0.018 l 0.01,0.014 c 0.005,0.008 0.01,0.015 0.016,0.021 l 0.009,0.013 c 0.004,0.005 0.008,0.01 0.012,0.015 l 0.009,0.012 c 0.005,0.007 0.011,0.013 0.016,0.02 0.004,0.005 0.008,0.01 0.012,0.015 0.005,0.006 0.01,0.011 0.015,0.017 l 0.009,0.012 c 0.005,0.004 0.009,0.01 0.014,0.014 0.003,0.004 0.007,0.009 0.01,0.012 0.007,0.007 0.012,0.013 0.018,0.019 0.005,0.006 0.01,0.01 0.014,0.015 0.005,0.005 0.009,0.009 0.013,0.013 l 0.013,0.013 0.012,0.011 c 0.005,0.005 0.008,0.009 0.013,0.013 l 0,0 c 0.007,0.006 0.014,0.013 0.021,0.019 l 0,10e-4 c 0.005,0.004 0.009,0.008 0.013,0.012 0.005,0.004 0.009,0.008 0.013,0.011 l 0.013,0.011 0.013,0.011 c 0.009,0.007 0.017,0.014 0.026,0.022 l 0.011,0.009 c 0.005,0.004 0.01,0.007 0.014,0.01 l 0.014,0.011 c 0.005,0.003 0.009,0.008 0.014,0.011 0.004,0.003 0.008,0.006 0.012,0.008 0.01,0.008 0.02,0.014 0.03,0.021 l 0.01,0.007 c 0.005,0.004 0.011,0.008 0.017,0.012 l 0.011,0.007 c 0.006,0.004 0.012,0.008 0.017,0.012 l 0.012,0.006 C -2.009,9.754 -2,9.761 -1.99,9.767 l 0.013,0.007 c 0.006,0.003 0.012,0.007 0.017,0.01 l 0.013,0.008 c 0.006,0.003 0.012,0.006 0.018,0.009 l 0.007,0.004 c 0.012,0.006 0.023,0.012 0.036,0.019 l 0.013,0.005 0.017,0.009 c 0.005,0.003 0.01,0.005 0.015,0.007 0.209,0.097 0.441,0.151 0.686,0.151 l 4.166,0 0,1.243 L 5.675,8.6 3.011,5.961 l 0,1.243 -3.011,0 0,-2.717 z" />
        </g>
      </g>
    </g>
    <g
       transform="matrix(1.25,0,0,-1.25,330.49224,1154.7649)"
       id="g14006">
      <path
         id="path14008"
         style="fill:#ffffff;fill-opacity:1;fill-rule:nonzero;stroke:none"
         d="m 0,0 0,2.7 -2.7,0 0,2.991 2.7,0 0,2.699 2.991,0 0,-2.699 2.699,0 0,-2.991 -2.699,0 0,-2.7 L 0,0 Z" />
    </g>
  </g>
</svg>
